<svg width="24" height="24" viewBox="0 0 24 24" fill="none" xmlns="http://www.w3.org/2000/svg">
<circle cx="12" cy="12" r="12" fill="#FF2E00"/>
<path fill-rule="evenodd" clip-rule="evenodd" d="M16.4716 7.52864C16.7319 7.78899 16.7319 8.2111 16.4716 8.47145L8.47157 16.4714C8.21122 16.7318 7.78911 16.7318 7.52876 16.4714C7.26841 16.2111 7.26841 15.789 7.52876 15.5286L15.5288 7.52864C15.7891 7.26829 16.2112 7.26829 16.4716 7.52864Z" fill="white"/>
<path fill-rule="evenodd" clip-rule="evenodd" d="M7.52876 7.52864C7.78911 7.26829 8.21122 7.26829 8.47157 7.52864L16.4716 15.5286C16.7319 15.789 16.7319 16.2111 16.4716 16.4714C16.2112 16.7318 15.7891 16.7318 15.5288 16.4714L7.52876 8.47145C7.26841 8.2111 7.26841 7.78899 7.52876 7.52864Z" fill="white"/>
</svg>
