<svg width="18" height="18" viewBox="0 0 18 18" fill="none" xmlns="http://www.w3.org/2000/svg">
<path fill-rule="evenodd" clip-rule="evenodd" d="M1.40907 2.90901C1.83103 2.48705 2.40332 2.25 3.00006 2.25H8.25006C8.66427 2.25 9.00006 2.58579 9.00006 3C9.00006 3.41421 8.66427 3.75 8.25006 3.75H3.00006C2.80115 3.75 2.61038 3.82902 2.46973 3.96967C2.32908 4.11032 2.25006 4.30109 2.25006 4.5V15C2.25006 15.1989 2.32908 15.3897 2.46973 15.5303C2.61038 15.671 2.80115 15.75 3.00006 15.75H13.5001C13.699 15.75 13.8897 15.671 14.0304 15.5303C14.171 15.3897 14.2501 15.1989 14.2501 15V9.75C14.2501 9.33579 14.5858 9 15.0001 9C15.4143 9 15.7501 9.33579 15.7501 9.75V15C15.7501 15.5967 15.513 16.169 15.0911 16.591C14.6691 17.0129 14.0968 17.25 13.5001 17.25H3.00006C2.40332 17.25 1.83103 17.0129 1.40907 16.591C0.987114 16.169 0.750061 15.5967 0.750061 15V4.5C0.750061 3.90326 0.987114 3.33097 1.40907 2.90901Z" fill="#646671"/>
<path fill-rule="evenodd" clip-rule="evenodd" d="M15 2.15895C14.777 2.15895 14.5631 2.24756 14.4053 2.40528L7.42724 9.38338L7.03079 10.9692L8.61658 10.5727L15.5947 3.59461C15.7524 3.4369 15.841 3.22299 15.841 2.99994C15.841 2.7769 15.7524 2.56299 15.5947 2.40528C15.437 2.24756 15.2231 2.15895 15 2.15895ZM13.3447 1.34461C13.7837 0.905594 14.3791 0.658955 15 0.658955C15.6209 0.658955 16.2163 0.905594 16.6553 1.34461C17.0944 1.78364 17.341 2.37908 17.341 2.99994C17.341 3.62081 17.0944 4.21625 16.6553 4.65527L9.53035 11.7803C9.43423 11.8764 9.31379 11.9446 9.18192 11.9776L6.18192 12.7276C5.92634 12.7914 5.65597 12.7166 5.46969 12.5303C5.2834 12.344 5.20851 12.0736 5.27241 11.818L6.02241 8.81804C6.05538 8.68617 6.12357 8.56573 6.21969 8.46961L13.3447 1.34461Z" fill="#646671"/>
</svg>
