<svg width="170" height="60" viewBox="0 0 170 60" fill="none" xmlns="http://www.w3.org/2000/svg">
<path d="M70.2 20.8999H65.2V35.0999H68.5V30.0999H70.5C71.5 30.0999 73 29.9999 74.1 28.7999C74.6 28.1999 75.3 27.1999 75.3 25.4999C75.3 24.4999 75.1 23.0999 73.9 21.9999C72.8 21.0999 71.5 20.8999 70.2 20.8999ZM71.5 26.8999C71 27.3999 70.2 27.3999 69.7 27.3999H68.5V23.4999H69.6C70.2 23.4999 70.9 23.5999 71.4 23.9999C71.7 24.2999 71.9 24.7999 71.9 25.3999C72 26.0999 71.8 26.5999 71.5 26.8999ZM83.9 26.6999C83 25.4999 81.7 25.2999 80.9 25.2999C79.6 25.2999 78.4 25.7999 77.6 26.5999C76.7 27.4999 76.1 28.7999 76.1 30.3999C76.1 31.6999 76.5 32.8999 77.5 33.9999C78.5 35.0999 79.7 35.3999 81.1 35.3999C81.9 35.3999 83.1 35.1999 83.9 33.8999V35.0999H87V25.5999H83.9V26.6999ZM83.3 32.0999C82.9 32.4999 82.3 32.7999 81.7 32.7999C81 32.7999 80.3 32.4999 79.9 32.0999C79.6 31.7999 79.3 31.1999 79.3 30.3999C79.3 29.5999 79.7 28.9999 80 28.6999C80.4 28.2999 81 27.9999 81.7 27.9999C82.3 27.9999 82.9 28.1999 83.4 28.6999C83.8 29.0999 84.1 29.7999 84.1 30.3999C84.1 31.0999 83.7 31.6999 83.3 32.0999ZM94.4 30.7999L91.7 25.5999H88.2L92.7 33.8999L89.4 39.9999H92.9L100.5 25.5999H97L94.4 30.7999ZM114.3 20.8999H110.3L105.4 26.7999V20.8999H102.1V35.0999H105.4V28.7999L110.5 35.0999H114.7L108.5 27.5999L114.3 20.8999ZM122.7 26.6999C121.8 25.4999 120.5 25.2999 119.7 25.2999C118.4 25.2999 117.2 25.7999 116.4 26.5999C115.5 27.4999 114.9 28.7999 114.9 30.3999C114.9 31.6999 115.3 32.8999 116.3 33.9999C117.3 35.0999 118.5 35.3999 119.9 35.3999C120.7 35.3999 121.9 35.1999 122.7 33.8999V35.0999H125.8V25.5999H122.7V26.6999ZM122.1 32.0999C121.7 32.4999 121.1 32.7999 120.5 32.7999C119.8 32.7999 119.1 32.4999 118.7 32.0999C118.4 31.7999 118.1 31.1999 118.1 30.3999C118.1 29.5999 118.5 28.9999 118.8 28.6999C119.2 28.2999 119.8 27.9999 120.5 27.9999C121.1 27.9999 121.7 28.1999 122.2 28.6999C122.6 29.0999 122.9 29.7999 122.9 30.3999C122.9 31.0999 122.6 31.6999 122.1 32.0999ZM133.2 29.1999L132.4 28.8999C132 28.7999 131.7 28.6999 131.5 28.5999C131.4 28.4999 131.2 28.3999 131.2 28.1999C131.2 28.0999 131.3 27.8999 131.4 27.7999C131.6 27.5999 132 27.4999 132.3 27.4999C132.9 27.4999 133.5 27.7999 134 27.9999L135.2 26.0999C134.4 25.6999 133.5 25.2999 132 25.2999C131.1 25.2999 130 25.4999 129.1 26.2999C128.5 26.7999 128.2 27.5999 128.2 28.4999C128.2 29.1999 128.4 29.7999 128.9 30.1999C129.3 30.5999 129.9 30.8999 130.4 31.0999L131.2 31.2999C131.6 31.3999 131.9 31.4999 132.1 31.5999C132.4 31.7999 132.4 31.9999 132.4 32.1999C132.4 32.3999 132.3 32.6999 132.1 32.7999C131.8 32.9999 131.3 32.9999 131.1 32.9999C130.7 32.9999 130.2 32.8999 129.8 32.6999C129.5 32.5999 129.1 32.2999 128.8 31.9999L127.5 34.0999C128.7 35.1999 130.1 35.4999 131.4 35.4999C132.4 35.4999 133.6 35.3999 134.5 34.3999C134.9 33.9999 135.5 33.1999 135.5 31.8999C135.5 31.1999 135.3 30.5999 134.8 30.0999C134.3 29.5999 133.8 29.3999 133.2 29.1999ZM142.5 29.1999L141.7 28.8999C141.3 28.7999 141 28.6999 140.8 28.5999C140.7 28.4999 140.5 28.3999 140.5 28.1999C140.5 28.0999 140.6 27.8999 140.7 27.7999C140.9 27.5999 141.3 27.4999 141.6 27.4999C142.2 27.4999 142.8 27.7999 143.3 27.9999L144.5 26.0999C143.7 25.6999 142.8 25.2999 141.3 25.2999C140.4 25.2999 139.3 25.4999 138.4 26.2999C137.8 26.7999 137.5 27.5999 137.5 28.4999C137.5 29.1999 137.7 29.7999 138.2 30.1999C138.6 30.5999 139.2 30.8999 139.7 31.0999L140.5 31.2999C140.9 31.3999 141.2 31.4999 141.4 31.5999C141.7 31.7999 141.7 31.9999 141.7 32.1999C141.7 32.3999 141.6 32.6999 141.4 32.7999C141.1 32.9999 140.6 32.9999 140.4 32.9999C140 32.9999 139.5 32.8999 139.1 32.6999C138.8 32.5999 138.4 32.2999 138.1 31.9999L136.8 34.0999C138 35.1999 139.4 35.4999 140.7 35.4999C141.7 35.4999 142.9 35.3999 143.8 34.3999C144.2 33.9999 144.8 33.1999 144.8 31.8999C144.8 31.1999 144.6 30.5999 144.1 30.0999C143.6 29.5999 143 29.3999 142.5 29.1999ZM153.9 25.5999V26.6999C153 25.4999 151.7 25.2999 150.9 25.2999C149.6 25.2999 148.4 25.7999 147.6 26.5999C146.7 27.4999 146.1 28.7999 146.1 30.3999C146.1 31.6999 146.5 32.8999 147.5 33.9999C148.5 35.0999 149.7 35.3999 151.1 35.3999C151.9 35.3999 153.1 35.1999 153.9 33.8999V35.0999H157V25.5999H153.9ZM153.4 32.0999C153 32.4999 152.4 32.7999 151.8 32.7999C151.1 32.7999 150.4 32.4999 150 32.0999C149.7 31.7999 149.4 31.1999 149.4 30.3999C149.4 29.5999 149.8 28.9999 150.1 28.6999C150.5 28.2999 151.1 27.9999 151.8 27.9999C152.4 27.9999 153 28.1999 153.5 28.6999C153.9 29.0999 154.2 29.7999 154.2 30.3999C154.1 31.0999 153.8 31.6999 153.4 32.0999Z" fill="white"/>
<path d="M13.967 44.8998L46.211 12.6558L48.615 15.0598L16.371 47.3038L13.967 44.8998Z" fill="#3154E1"/>
<path d="M38.3999 12.1001L31.2999 19.3001L25.2999 13.3001L22.8999 15.7001L28.8999 21.6001L27.0999 23.4001L16.9999 13.3001L14.5999 15.7001L24.6999 25.8001L22.8999 27.6001L16.9999 21.6001L14.5999 24.0001L20.4999 30.0001L13.3999 37.2001L15.7999 39.5001L40.7999 14.5001L38.3999 12.1001Z" fill="#3154E1"/>
<path d="M45.5999 38.4L48 36L42 30L49.2 22.8L46.7999 20.5L21.7 45.5L24.1 47.9L31.2999 40.7L37.2 46.7L39.5999 44.3L33.7 38.4L35.4 36.6L45.5999 46.7L48 44.3L37.7999 34.2L39.5999 32.4L45.5999 38.4Z" fill="#3154E1"/>
</svg>
