<svg width="24" height="24" viewBox="0 0 24 24" fill="none" xmlns="http://www.w3.org/2000/svg">
<circle cx="12" cy="12" r="12" fill="#FFE600"/>
<path fill-rule="evenodd" clip-rule="evenodd" d="M11.9998 5.99996C8.68613 5.99996 5.99984 8.68625 5.99984 12C5.99984 15.3137 8.68613 18 11.9998 18C15.3135 18 17.9998 15.3137 17.9998 12C17.9998 8.68625 15.3135 5.99996 11.9998 5.99996ZM4.6665 12C4.6665 7.94987 7.94975 4.66663 11.9998 4.66663C16.0499 4.66663 19.3332 7.94987 19.3332 12C19.3332 16.05 16.0499 19.3333 11.9998 19.3333C7.94975 19.3333 4.6665 16.05 4.6665 12Z" fill="black"/>
<path fill-rule="evenodd" clip-rule="evenodd" d="M12.0002 7.33337C12.3684 7.33337 12.6668 7.63185 12.6668 8.00004V11.588L14.965 12.7371C15.2943 12.9017 15.4278 13.3022 15.2631 13.6315C15.0985 13.9608 14.698 14.0943 14.3687 13.9297L11.702 12.5963C11.4762 12.4834 11.3335 12.2526 11.3335 12V8.00004C11.3335 7.63185 11.632 7.33337 12.0002 7.33337Z" fill="black"/>
</svg>
