<svg width="16" height="16" viewBox="0 0 16 16" fill="none" xmlns="http://www.w3.org/2000/svg">
<path d="M8 0.125C3.6512 0.125 0.125 3.6512 0.125 8C0.125 12.3488 3.6512 15.875 8 15.875C12.3488 15.875 15.875 12.3488 15.875 8C15.875 3.6512 12.3488 0.125 8 0.125ZM10.4246 11.7458C10.4246 11.7458 10.2284 12.2372 9.6866 12.0014L7.6796 10.4624L6.4466 9.4976L6.452 9.4526C6.452 9.4526 10.052 6.2162 10.1996 6.0794L10.2986 5.912C10.3076 5.7446 10.0322 5.912 10.0322 5.912L5.2622 8.9414L3.275 8.2718C3.275 8.2718 2.969 8.1638 2.9402 7.928C2.9114 7.6922 3.284 7.5644 3.284 7.5644L11.1824 4.4666C11.1824 4.4666 11.8322 4.1822 11.8322 4.6538L10.4246 11.7458Z" fill="#141517"/>
</svg>
