<svg width="18" height="18" viewBox="0 0 18 18" fill="none" xmlns="http://www.w3.org/2000/svg">
<path fill-rule="evenodd" clip-rule="evenodd" d="M1.49988 4.50027C1.49988 4.08605 1.83566 3.75027 2.24988 3.75027H15.7499C16.1641 3.75027 16.4999 4.08605 16.4999 4.50027C16.4999 4.91448 16.1641 5.25027 15.7499 5.25027H2.24988C1.83566 5.25027 1.49988 4.91448 1.49988 4.50027Z" fill="#646671"/>
<path fill-rule="evenodd" clip-rule="evenodd" d="M7.50012 2.24973C7.30121 2.24973 7.11044 2.32875 6.96979 2.4694C6.82914 2.61005 6.75012 2.80082 6.75012 2.99973V3.74973H11.2501V2.99973C11.2501 2.80082 11.1711 2.61005 11.0305 2.4694C10.8898 2.32875 10.699 2.24973 10.5001 2.24973H7.50012ZM12.7501 3.74973V2.99973C12.7501 2.403 12.5131 1.8307 12.0911 1.40874C11.6692 0.986786 11.0969 0.749733 10.5001 0.749733H7.50012C6.90338 0.749733 6.33109 0.986786 5.90913 1.40874C5.48718 1.8307 5.25012 2.403 5.25012 2.99973V3.74973H3.75012C3.33591 3.74973 3.00012 4.08552 3.00012 4.49973V14.9997C3.00012 15.5965 3.23717 16.1688 3.65913 16.5907C4.08109 17.0127 4.65338 17.2497 5.25012 17.2497H12.7501C13.3469 17.2497 13.9192 17.0127 14.3411 16.5907C14.7631 16.1688 15.0001 15.5965 15.0001 14.9997V4.49973C15.0001 4.08552 14.6643 3.74973 14.2501 3.74973H12.7501ZM4.50012 5.24973V14.9997C4.50012 15.1986 4.57914 15.3894 4.71979 15.5301C4.86044 15.6707 5.05121 15.7497 5.25012 15.7497H12.7501C12.949 15.7497 13.1398 15.6707 13.2805 15.5301C13.4211 15.3894 13.5001 15.1986 13.5001 14.9997V5.24973H4.50012Z" fill="#646671"/>
</svg>
