<svg width="68" height="68" viewBox="0 0 68 68" fill="none" xmlns="http://www.w3.org/2000/svg">
<rect x="1" y="1" width="66" height="66" rx="33" stroke="white" stroke-width="2"/>
<path d="M28.152 32.488C29.3253 32.488 30.3707 32.7227 31.288 33.192C32.2053 33.64 32.92 34.28 33.432 35.112C33.944 35.9227 34.2 36.84 34.2 37.864C34.2 39.1653 33.8053 40.4027 33.016 41.576C32.2267 42.7493 31.1067 43.6987 29.656 44.424C28.2267 45.128 26.584 45.48 24.728 45.48C23.8533 45.48 22.9893 45.384 22.136 45.192C21.2827 45.0213 20.5253 44.776 19.864 44.456L21.304 40.488C24.056 41.8533 26.7653 42.76 29.432 43.208C29.6453 42.5253 29.752 41.8107 29.752 41.064C29.752 39.336 29.08 38.0453 27.736 37.192C26.4133 36.3387 24.28 35.944 21.336 36.008V35.016L28.76 27.88L21.336 29.192L21.24 30.44H20.216V23.56H33.304V26.984L25.368 32.872C26.264 32.616 27.192 32.488 28.152 32.488ZM49.877 23.56V27.016L43.797 45H37.461L47.765 27.688L36.629 29.192L36.533 30.44H35.509V23.56H49.877Z" fill="white"/>
</svg>
