<svg width="18" height="18" viewBox="0 0 18 18" fill="none" xmlns="http://www.w3.org/2000/svg">
<path fill-rule="evenodd" clip-rule="evenodd" d="M9 17.25C13.5563 17.25 17.25 13.5563 17.25 9C17.25 4.44365 13.5563 0.75 9 0.75C4.44365 0.75 0.75 4.44365 0.75 9C0.75 13.5563 4.44365 17.25 9 17.25ZM9 18C13.9706 18 18 13.9706 18 9C18 4.02944 13.9706 0 9 0C4.02944 0 0 4.02944 0 9C0 13.9706 4.02944 18 9 18Z" fill="#FCFCFC"/>
<path fill-rule="evenodd" clip-rule="evenodd" d="M8.99951 9.75C10.2422 9.75 11.2495 8.74264 11.2495 7.5C11.2495 6.25736 10.2422 5.25 8.99951 5.25C7.75687 5.25 6.74951 6.25736 6.74951 7.5C6.74951 8.74264 7.75687 9.75 8.99951 9.75ZM8.99951 10.5C10.6564 10.5 11.9995 9.15685 11.9995 7.5C11.9995 5.84315 10.6564 4.5 8.99951 4.5C7.34266 4.5 5.99951 5.84315 5.99951 7.5C5.99951 9.15685 7.34266 10.5 8.99951 10.5Z" fill="#FCFCFC"/>
<path fill-rule="evenodd" clip-rule="evenodd" d="M6.02652 11.6907C5.27922 12.1889 4.87549 12.836 4.87549 13.5H4.12549C4.12549 12.5072 4.72911 11.6542 5.6105 11.0667C6.4945 10.4773 7.69414 10.125 9.00049 10.125C10.3068 10.125 11.5065 10.4773 12.3905 11.0667C13.2719 11.6543 13.8755 12.5072 13.8755 13.5H13.1255C13.1255 12.836 12.7218 12.1889 11.9745 11.6907C11.2298 11.1942 10.1794 10.875 9.00049 10.875C7.82156 10.875 6.7712 11.1942 6.02652 11.6907Z" fill="#FCFCFC"/>
</svg>
