<svg width="109" height="109" viewBox="0 0 109 109" fill="none" xmlns="http://www.w3.org/2000/svg">
<mask id="path-1-inside-1" fill="white">
<path d="M71.2888 97.6015C72.3445 95.6881 74.357 94.5 76.5423 94.5H85.0206C86.8975 94.5 88.6663 95.3783 89.8007 96.8737L91.6973 99.3737C94.6947 103.325 91.8766 109 86.9171 109H75.163C70.5958 109 67.7032 104.1 69.9095 100.102L71.2888 97.6015Z"/>
</mask>
<path d="M71.2888 97.6015C72.3445 95.6881 74.357 94.5 76.5423 94.5H85.0206C86.8975 94.5 88.6663 95.3783 89.8007 96.8737L91.6973 99.3737C94.6947 103.325 91.8766 109 86.9171 109H75.163C70.5958 109 67.7032 104.1 69.9095 100.102L71.2888 97.6015Z" fill="#141517" stroke="#141517" stroke-width="6" mask="url(#path-1-inside-1)"/>
<rect x="7.5" y="1.5" width="55" height="106" rx="5.5" fill="#FFE07D" stroke="#141517" stroke-width="3"/>
<rect x="25.5" y="93.5" width="19" height="8" rx="4" stroke="#141517" stroke-width="3"/>
<path d="M22.5666 57H25.0586V53.318L28.2086 46.57H25.5906L24.7226 48.894C24.4286 49.678 24.1486 50.406 23.8546 51.218H23.7986C23.5046 50.406 23.2386 49.678 22.9586 48.894L22.0906 46.57H19.4306L22.5666 53.318V57ZM33.2618 57.196C36.1038 57.196 38.0358 55.152 38.0358 51.736C38.0358 48.334 36.1038 46.388 33.2618 46.388C30.4198 46.388 28.4878 48.32 28.4878 51.736C28.4878 55.152 30.4198 57.196 33.2618 57.196ZM33.2618 55.04C31.8898 55.04 31.0498 53.752 31.0498 51.736C31.0498 49.72 31.8898 48.53 33.2618 48.53C34.6338 48.53 35.4878 49.72 35.4878 51.736C35.4878 53.752 34.6338 55.04 33.2618 55.04ZM44.1416 57.196C46.9136 57.196 48.3136 55.614 48.3136 52.1V46.57H45.9056V52.366C45.9056 54.34 45.2756 55.04 44.1416 55.04C42.9936 55.04 42.4056 54.34 42.4056 52.366V46.57H39.9136V52.1C39.9136 55.614 41.3556 57.196 44.1416 57.196ZM19.2094 77H22.3034L23.2134 72.464C23.3674 71.666 23.4934 70.826 23.6334 70.042H23.6894C23.7874 70.826 23.9274 71.666 24.0954 72.464L25.0334 77H28.1834L29.9894 66.57H27.6234L26.9374 71.33C26.8114 72.408 26.6714 73.514 26.5454 74.634H26.4754C26.2654 73.514 26.0834 72.394 25.8734 71.33L24.7954 66.57H22.6814L21.6174 71.33C21.4074 72.408 21.1974 73.514 21.0014 74.634H20.9454C20.8054 73.514 20.6654 72.422 20.5254 71.33L19.8674 66.57H17.3194L19.2094 77ZM35.6954 77.196C38.5374 77.196 40.4694 75.152 40.4694 71.736C40.4694 68.334 38.5374 66.388 35.6954 66.388C32.8534 66.388 30.9214 68.32 30.9214 71.736C30.9214 75.152 32.8534 77.196 35.6954 77.196ZM35.6954 75.04C34.3234 75.04 33.4834 73.752 33.4834 71.736C33.4834 69.72 34.3234 68.53 35.6954 68.53C37.0674 68.53 37.9214 69.72 37.9214 71.736C37.9214 73.752 37.0674 75.04 35.6954 75.04ZM42.4032 77H44.7832V73.542C44.7832 72.282 44.5732 70.854 44.4612 69.692H44.5312L45.5532 71.974L48.1292 77H50.6772V66.57H48.2972V70.028C48.2972 71.274 48.5072 72.772 48.6332 73.878H48.5632L47.5412 71.568L44.9512 66.57H42.4032V77Z" fill="#141517"/>
<mask id="path-5-inside-2" fill="white">
<path d="M20.0971 2.74278C19.5716 1.42905 20.5391 0 21.9541 0H47.3119C48.6517 0 49.6126 1.29147 49.2276 2.5747L47.4276 8.5747C47.1738 9.42066 46.3952 10 45.5119 10H24.3541C23.5363 10 22.8008 9.5021 22.4971 8.74278L20.0971 2.74278Z"/>
</mask>
<path d="M20.0971 2.74278C19.5716 1.42905 20.5391 0 21.9541 0H47.3119C48.6517 0 49.6126 1.29147 49.2276 2.5747L47.4276 8.5747C47.1738 9.42066 46.3952 10 45.5119 10H24.3541C23.5363 10 22.8008 9.5021 22.4971 8.74278L20.0971 2.74278Z" stroke="#141517" stroke-width="6" mask="url(#path-5-inside-2)"/>
<mask id="path-6-inside-3" fill="white">
<path d="M100 84.5C100 94.7173 91.7173 103 81.5 103C71.2827 103 63 94.7173 63 84.5C63 74.2827 71.2827 66 81.5 66C91.7173 66 100 74.2827 100 84.5Z"/>
</mask>
<path d="M81.5 66V67.5V66ZM63 86H100V83H63V86ZM81.5 64.5C79.8636 64.5 78.6466 65.5261 77.8073 66.7338C76.9636 67.9479 76.3222 69.5806 75.8332 71.3899C74.8496 75.0292 74.375 79.7963 74.375 84.5C74.375 89.2037 74.8496 93.9708 75.8332 97.6101C76.3222 99.4194 76.9636 101.052 77.8073 102.266C78.6466 103.474 79.8636 104.5 81.5 104.5V101.5C81.2614 101.5 80.8377 101.37 80.2708 100.554C79.7083 99.7447 79.1778 98.4869 78.7293 96.8274C77.8379 93.5292 77.375 89.0463 77.375 84.5C77.375 79.9537 77.8379 75.4708 78.7293 72.1726C79.1778 70.5131 79.7083 69.2553 80.2708 68.4459C80.8377 67.6301 81.2614 67.5 81.5 67.5V64.5ZM81.5 67.5C81.7386 67.5 82.1623 67.6301 82.7292 68.4459C83.2917 69.2553 83.8222 70.5131 84.2707 72.1726C85.1621 75.4708 85.625 79.9537 85.625 84.5C85.625 89.0463 85.1621 93.5292 84.2707 96.8274C83.8222 98.4869 83.2917 99.7447 82.7292 100.554C82.1623 101.37 81.7386 101.5 81.5 101.5V104.5C83.1364 104.5 84.3534 103.474 85.1927 102.266C86.0364 101.052 86.6778 99.4194 87.1668 97.6101C88.1504 93.9708 88.625 89.2037 88.625 84.5C88.625 79.7963 88.1504 75.0292 87.1668 71.3899C86.6778 69.5806 86.0364 67.9479 85.1927 66.7338C84.3534 65.5261 83.1364 64.5 81.5 64.5V67.5ZM97 84.5C97 93.0604 90.0604 100 81.5 100V106C93.3741 106 103 96.3741 103 84.5H97ZM81.5 100C72.9396 100 66 93.0604 66 84.5H60C60 96.3741 69.6259 106 81.5 106V100ZM66 84.5C66 75.9396 72.9396 69 81.5 69V63C69.6259 63 60 72.6259 60 84.5H66ZM81.5 69C90.0604 69 97 75.9396 97 84.5H103C103 72.6259 93.3741 63 81.5 63V69Z" fill="white" mask="url(#path-6-inside-3)"/>
</svg>
