<svg width="54" height="54" viewBox="0 0 54 54" fill="none" xmlns="http://www.w3.org/2000/svg">
<path d="M0 27C0 12.0883 12.0883 0 27 0C41.9117 0 54 12.0883 54 27C54 41.9117 41.9117 54 27 54C12.0883 54 0 41.9117 0 27Z" fill="url(#paint0_linear_1605_4036)"/>
<path fill-rule="evenodd" clip-rule="evenodd" d="M53.2597 33.3057L48.4225 32.1484C48.8165 30.5017 49.0263 28.7786 49.0263 27C49.0263 25.2214 48.8165 23.4983 48.4225 21.8516L53.2597 20.6942C53.7437 22.7172 54 24.8287 54 27C54 29.1713 53.7437 31.2828 53.2597 33.3057ZM50.0248 12.8909L45.7864 15.4936C43.968 12.5324 41.4676 10.032 38.5064 8.21356L41.1091 3.97523C44.7365 6.20278 47.7972 9.26349 50.0248 12.8909ZM33.3057 0.740311L32.1484 5.57748C30.5017 5.18349 28.7786 4.97368 27 4.97368C25.2214 4.97368 23.4983 5.18349 21.8516 5.57748L20.6942 0.740312C22.7172 0.256305 24.8287 0 27 0C29.1713 0 31.2828 0.256305 33.3057 0.740311ZM12.8909 3.97524L15.4936 8.21357C12.5324 10.032 10.032 12.5324 8.21356 15.4936L3.97523 12.8909C6.20278 9.26349 9.26349 6.20278 12.8909 3.97524ZM0.740311 20.6943C0.256305 22.7172 0 24.8287 0 27C0 29.1713 0.256305 31.2828 0.740312 33.3057L5.57748 32.1484C5.18349 30.5017 4.97368 28.7786 4.97368 27C4.97368 25.2214 5.18349 23.4983 5.57748 21.8516L0.740311 20.6943ZM3.97524 41.1091L8.21357 38.5064C10.032 41.4676 12.5324 43.968 15.4936 45.7864L12.8909 50.0248C9.26349 47.7972 6.20278 44.7365 3.97524 41.1091ZM20.6943 53.2597L21.8516 48.4225C23.4983 48.8165 25.2214 49.0263 27 49.0263C28.7786 49.0263 30.5017 48.8165 32.1484 48.4225L33.3057 53.2597C31.2828 53.7437 29.1713 54 27 54C24.8287 54 22.7172 53.7437 20.6943 53.2597ZM41.1091 50.0248C44.7365 47.7972 47.7972 44.7365 50.0248 41.1091L45.7864 38.5064C43.968 41.4676 41.4676 43.968 38.5064 45.7864L41.1091 50.0248Z" fill="white"/>
<path d="M44.7642 26.6448C44.7642 36.6513 36.6523 44.7632 26.6458 44.7632C16.6392 44.7632 8.52734 36.6513 8.52734 26.6448C8.52734 16.6383 16.6392 8.52637 26.6458 8.52637C36.6523 8.52637 44.7642 16.6383 44.7642 26.6448Z" fill="black" fill-opacity="0.4"/>
<path d="M28.2697 31.2628H26.34V25.9796C26.34 25.8339 26.3421 25.6549 26.3463 25.4426C26.3505 25.2261 26.3567 25.0054 26.365 24.7806C26.3734 24.5517 26.3817 24.3456 26.39 24.1624C26.3442 24.2165 26.2505 24.3102 26.109 24.4434C25.9716 24.5725 25.8425 24.689 25.7218 24.7931L24.6727 25.6362L23.7422 24.4746L26.6835 22.1328H28.2697V31.2628Z" fill="white"/>
<path fill-rule="evenodd" clip-rule="evenodd" d="M26.6439 40.5002C34.296 40.5002 40.4992 34.2969 40.4992 26.6449C40.4992 18.9928 34.296 12.7896 26.6439 12.7896C18.9919 12.7896 12.7887 18.9928 12.7887 26.6449C12.7887 34.2969 18.9919 40.5002 26.6439 40.5002ZM26.6439 41.2107C34.6884 41.2107 41.2097 34.6894 41.2097 26.6449C41.2097 18.6004 34.6884 12.0791 26.6439 12.0791C18.5995 12.0791 12.0781 18.6004 12.0781 26.6449C12.0781 34.6894 18.5995 41.2107 26.6439 41.2107Z" fill="white"/>
<defs>
<linearGradient id="paint0_linear_1605_4036" x1="27" y1="0" x2="27" y2="54" gradientUnits="userSpaceOnUse">
<stop offset="0.645138" stop-color="#1235B1"/>
<stop offset="1" stop-color="#00C2FF"/>
</linearGradient>
</defs>
</svg>
