<svg width="54" height="54" viewBox="0 0 54 54" fill="none" xmlns="http://www.w3.org/2000/svg">
<path d="M0 27C0 12.0883 12.0883 0 27 0C41.9117 0 54 12.0883 54 27C54 41.9117 41.9117 54 27 54C12.0883 54 0 41.9117 0 27Z" fill="url(#paint0_linear_1605_4060)"/>
<path fill-rule="evenodd" clip-rule="evenodd" d="M53.2597 33.3057L48.4225 32.1484C48.8165 30.5017 49.0263 28.7786 49.0263 27C49.0263 25.2214 48.8165 23.4983 48.4225 21.8516L53.2597 20.6942C53.7437 22.7172 54 24.8287 54 27C54 29.1713 53.7437 31.2828 53.2597 33.3057ZM50.0248 12.8909L45.7864 15.4936C43.968 12.5324 41.4676 10.032 38.5064 8.21356L41.1091 3.97523C44.7365 6.20278 47.7972 9.26349 50.0248 12.8909ZM33.3057 0.740311L32.1484 5.57748C30.5017 5.18349 28.7786 4.97368 27 4.97368C25.2214 4.97368 23.4983 5.18349 21.8516 5.57748L20.6942 0.740312C22.7172 0.256305 24.8287 0 27 0C29.1713 0 31.2828 0.256305 33.3057 0.740311ZM12.8909 3.97524L15.4936 8.21357C12.5324 10.032 10.032 12.5324 8.21356 15.4936L3.97523 12.8909C6.20278 9.26349 9.26349 6.20278 12.8909 3.97524ZM0.740311 20.6943C0.256305 22.7172 0 24.8287 0 27C0 29.1713 0.256305 31.2828 0.740312 33.3057L5.57748 32.1484C5.18349 30.5017 4.97368 28.7786 4.97368 27C4.97368 25.2214 5.18349 23.4983 5.57748 21.8516L0.740311 20.6943ZM3.97524 41.1091L8.21357 38.5064C10.032 41.4676 12.5324 43.968 15.4936 45.7864L12.8909 50.0248C9.26349 47.7972 6.20278 44.7365 3.97524 41.1091ZM20.6943 53.2597L21.8516 48.4225C23.4983 48.8165 25.2214 49.0263 27 49.0263C28.7786 49.0263 30.5017 48.8165 32.1484 48.4225L33.3057 53.2597C31.2828 53.7437 29.1713 54 27 54C24.8287 54 22.7172 53.7437 20.6943 53.2597ZM41.1091 50.0248C44.7365 47.7972 47.7972 44.7365 50.0248 41.1091L45.7864 38.5064C43.968 41.4676 41.4676 43.968 38.5064 45.7864L41.1091 50.0248Z" fill="white"/>
<path d="M44.7642 26.6448C44.7642 36.6513 36.6523 44.7632 26.6458 44.7632C16.6392 44.7632 8.52734 36.6513 8.52734 26.6448C8.52734 16.6383 16.6392 8.52637 26.6458 8.52637C36.6523 8.52637 44.7642 16.6383 44.7642 26.6448Z" fill="black" fill-opacity="0.4"/>
<path d="M26.2197 31.2629H19.8375V29.9202L22.1293 27.6034C22.5915 27.1288 22.962 26.7333 23.2409 26.4169C23.524 26.0963 23.728 25.8049 23.8529 25.5426C23.982 25.2803 24.0465 24.9993 24.0465 24.6995C24.0465 24.3373 23.9445 24.0667 23.7405 23.8877C23.5407 23.7045 23.2722 23.6129 22.9349 23.6129C22.5811 23.6129 22.2376 23.6941 21.9045 23.8565C21.5715 24.0188 21.2238 24.2499 20.8616 24.5497L19.8125 23.3069C20.0748 23.0821 20.3516 22.8698 20.6431 22.6699C20.9387 22.4701 21.28 22.3098 21.6672 22.1891C22.0586 22.0642 22.5269 22.0017 23.0723 22.0017C23.6718 22.0017 24.186 22.11 24.6148 22.3265C25.0478 22.543 25.3808 22.8386 25.614 23.2133C25.8471 23.5838 25.9637 24.0043 25.9637 24.4747C25.9637 24.9785 25.8638 25.4385 25.6639 25.8548C25.4641 26.2712 25.1727 26.6833 24.7897 27.0913C24.4108 27.4993 23.9528 27.951 23.4158 28.4464L22.2418 29.5518V29.6392H26.2197V31.2629Z" fill="white"/>
<path d="M33.4887 26.6979C33.4887 27.4348 33.4305 28.0926 33.3139 28.6713C33.2015 29.2499 33.0183 29.7412 32.7643 30.145C32.5145 30.5489 32.1856 30.857 31.7777 31.0693C31.3697 31.2816 30.8742 31.3878 30.2914 31.3878C29.5586 31.3878 28.9571 31.2025 28.4866 30.832C28.0162 30.4573 27.6685 29.9202 27.4437 29.2208C27.2189 28.5172 27.1065 27.6762 27.1065 26.6979C27.1065 25.7112 27.2085 24.8681 27.4125 24.1687C27.6207 23.4651 27.9579 22.926 28.4242 22.5513C28.8904 22.1766 29.5128 21.9893 30.2914 21.9893C31.0199 21.9893 31.6194 22.1766 32.0899 22.5513C32.5645 22.9218 32.9163 23.4589 33.1453 24.1625C33.3743 24.8619 33.4887 25.707 33.4887 26.6979ZM29.0237 26.6979C29.0237 27.3931 29.0611 27.9739 29.1361 28.4402C29.2152 28.9023 29.3463 29.2499 29.5295 29.4831C29.7127 29.7162 29.9666 29.8328 30.2914 29.8328C30.6119 29.8328 30.8638 29.7183 31.047 29.4893C31.2343 29.2562 31.3676 28.9086 31.4467 28.4464C31.5258 27.9802 31.5653 27.3973 31.5653 26.6979C31.5653 26.0026 31.5258 25.4218 31.4467 24.9556C31.3676 24.4893 31.2343 24.1396 31.047 23.9064C30.8638 23.6691 30.6119 23.5505 30.2914 23.5505C29.9666 23.5505 29.7127 23.6691 29.5295 23.9064C29.3463 24.1396 29.2152 24.4893 29.1361 24.9556C29.0611 25.4218 29.0237 26.0026 29.0237 26.6979Z" fill="white"/>
<path fill-rule="evenodd" clip-rule="evenodd" d="M26.6439 40.5002C34.296 40.5002 40.4992 34.2969 40.4992 26.6449C40.4992 18.9928 34.296 12.7896 26.6439 12.7896C18.9919 12.7896 12.7887 18.9928 12.7887 26.6449C12.7887 34.2969 18.9919 40.5002 26.6439 40.5002ZM26.6439 41.2107C34.6884 41.2107 41.2097 34.6894 41.2097 26.6449C41.2097 18.6004 34.6884 12.0791 26.6439 12.0791C18.5995 12.0791 12.0781 18.6004 12.0781 26.6449C12.0781 34.6894 18.5995 41.2107 26.6439 41.2107Z" fill="white"/>
<defs>
<linearGradient id="paint0_linear_1605_4060" x1="27" y1="0" x2="27" y2="54" gradientUnits="userSpaceOnUse">
<stop stop-color="#360637"/>
<stop offset="0.869347" stop-color="#820375"/>
</linearGradient>
</defs>
</svg>
