<svg width="14" height="14" viewBox="0 0 14 14" fill="none" xmlns="http://www.w3.org/2000/svg">
<path fill-rule="evenodd" clip-rule="evenodd" d="M5.61572 2.18802C5.8267 2.399 5.8267 2.74107 5.61572 2.95205L3.29647 5.2713L5.61572 7.59055C5.8267 7.80153 5.8267 8.1436 5.61572 8.35458C5.40474 8.56556 5.06267 8.56556 4.85169 8.35458L2.15042 5.65332C1.93944 5.44234 1.93944 5.10027 2.15042 4.88929L4.85169 2.18802C5.06267 1.97704 5.40474 1.97704 5.61572 2.18802Z" fill="white"/>
<path fill-rule="evenodd" clip-rule="evenodd" d="M1.99219 5.27121C1.99219 4.97284 2.23407 4.73096 2.53244 4.73096H9.01547C9.73189 4.73096 10.419 5.01555 10.9256 5.52214C11.4321 6.02872 11.7167 6.7158 11.7167 7.43222V11.214C11.7167 11.5124 11.4749 11.7542 11.1765 11.7542C10.8781 11.7542 10.6362 11.5124 10.6362 11.214V7.43222C10.6362 7.00237 10.4655 6.59012 10.1615 6.28617C9.85757 5.98222 9.44533 5.81146 9.01547 5.81146H2.53244C2.23407 5.81146 1.99219 5.56958 1.99219 5.27121Z" fill="white"/>
</svg>
