<svg width="16" height="16" viewBox="0 0 16 16" fill="none" xmlns="http://www.w3.org/2000/svg">
<path d="M15.1768 2.58678L15.3536 2.41L15.1768 2.23322L13.7668 0.823223L13.59 0.646447L13.4132 0.823223L8 6.23645L2.58678 0.823223L2.41 0.646447L2.23322 0.823223L0.823223 2.23322L0.646447 2.41L0.823223 2.58678L6.23645 8L0.823223 13.4132L0.646447 13.59L0.823223 13.7668L2.23322 15.1768L2.41 15.3536L2.58678 15.1768L8 9.76355L13.4132 15.1768L13.59 15.3536L13.7668 15.1768L15.1768 13.7668L15.3536 13.59L15.1768 13.4132L9.76355 8L15.1768 2.58678Z" fill="#FF2E00" stroke="#FF2E00" stroke-width="0.5"/>
</svg>
