<svg width="14" height="14" viewBox="0 0 14 14" fill="none" xmlns="http://www.w3.org/2000/svg">
<g clip-path="url(#clip0)">
<path fill-rule="evenodd" clip-rule="evenodd" d="M8.97562 0.567416C9.1866 0.356434 9.52867 0.356434 9.73965 0.567416L11.9007 2.72843C12.1116 2.93941 12.1116 3.28148 11.9007 3.49246L9.73965 5.65347C9.52867 5.86445 9.1866 5.86445 8.97562 5.65347C8.76464 5.44249 8.76464 5.10042 8.97562 4.88944L10.7546 3.11044L8.97562 1.33145C8.76464 1.12047 8.76464 0.778398 8.97562 0.567416Z" fill="white"/>
<path fill-rule="evenodd" clip-rule="evenodd" d="M3.95517 3.65082C3.52532 3.65082 3.11307 3.82158 2.80912 4.12553C2.50517 4.42948 2.33441 4.84172 2.33441 5.27158V6.35208C2.33441 6.65046 2.09253 6.89233 1.79416 6.89233C1.49579 6.89233 1.25391 6.65046 1.25391 6.35208V5.27158C1.25391 4.55516 1.5385 3.86808 2.04509 3.36149C2.55167 2.85491 3.23875 2.57031 3.95517 2.57031H11.5187C11.8171 2.57031 12.059 2.81219 12.059 3.11057C12.059 3.40894 11.8171 3.65082 11.5187 3.65082H3.95517Z" fill="white"/>
<path fill-rule="evenodd" clip-rule="evenodd" d="M4.33719 8.13089C4.54817 8.34187 4.54817 8.68394 4.33719 8.89493L2.55819 10.6739L4.33719 12.4529C4.54817 12.6639 4.54817 13.006 4.33719 13.2169C4.12621 13.4279 3.78414 13.4279 3.57315 13.2169L1.41214 11.0559C1.20116 10.845 1.20116 10.5029 1.41214 10.2919L3.57315 8.13089C3.78414 7.91991 4.12621 7.91991 4.33719 8.13089Z" fill="white"/>
<path fill-rule="evenodd" clip-rule="evenodd" d="M11.5187 6.89209C11.8171 6.89209 12.059 7.13397 12.059 7.43234V8.51285C12.059 9.22927 11.7744 9.91635 11.2678 10.4229C10.7612 10.9295 10.0741 11.2141 9.3577 11.2141H1.79416C1.49579 11.2141 1.25391 10.9722 1.25391 10.6739C1.25391 10.3755 1.49579 10.1336 1.79416 10.1336H9.3577C9.78755 10.1336 10.1998 9.96285 10.5037 9.6589C10.8077 9.35495 10.9785 8.9427 10.9785 8.51285V7.43234C10.9785 7.13397 11.2203 6.89209 11.5187 6.89209Z" fill="white"/>
</g>
<defs>
<clipPath id="clip0">
<rect width="12.9661" height="12.9661" fill="white" transform="translate(0.17334 0.40918)"/>
</clipPath>
</defs>
</svg>
