<svg width="37" height="39" viewBox="0 0 37 39" fill="none" xmlns="http://www.w3.org/2000/svg">
<rect y="2" width="37" height="37" rx="18.5" fill="#25252D"/>
<path fill-rule="evenodd" clip-rule="evenodd" d="M24 8.66667C21.6068 8.66667 19.6667 10.6068 19.6667 13C19.6667 15.3932 21.6068 17.3333 24 17.3333C26.3932 17.3333 28.3333 15.3932 28.3333 13C28.3333 10.6068 26.3932 8.66667 24 8.66667ZM17.5 13C17.5 9.41015 20.4101 6.5 24 6.5C27.5899 6.5 30.5 9.41015 30.5 13C30.5 16.5899 27.5899 19.5 24 19.5C20.4101 19.5 17.5 16.5899 17.5 13Z" fill="white"/>
<path fill-rule="evenodd" clip-rule="evenodd" d="M24.0003 0C24.5986 0 25.0837 0.485025 25.0837 1.08333V3.25C25.0837 3.84831 24.5986 4.33333 24.0003 4.33333C23.402 4.33333 22.917 3.84831 22.917 3.25V1.08333C22.917 0.485025 23.402 0 24.0003 0Z" fill="white"/>
<path fill-rule="evenodd" clip-rule="evenodd" d="M24.0003 21.667C24.5986 21.667 25.0837 22.152 25.0837 22.7503V24.917C25.0837 25.5153 24.5986 26.0003 24.0003 26.0003C23.402 26.0003 22.917 25.5153 22.917 24.917V22.7503C22.917 22.152 23.402 21.667 24.0003 21.667Z" fill="white"/>
<path fill-rule="evenodd" clip-rule="evenodd" d="M14.8056 3.80558C15.2287 3.38251 15.9146 3.38251 16.3376 3.80558L17.876 5.34392C18.299 5.76698 18.299 6.45291 17.876 6.87598C17.4529 7.29905 16.767 7.29905 16.3439 6.87598L14.8056 5.33765C14.3825 4.91458 14.3825 4.22865 14.8056 3.80558Z" fill="white"/>
<path fill-rule="evenodd" clip-rule="evenodd" d="M30.1239 19.1239C30.547 18.7009 31.2329 18.7009 31.656 19.1239L33.1943 20.6623C33.6174 21.0853 33.6174 21.7713 33.1943 22.1943C32.7713 22.6174 32.0853 22.6174 31.6623 22.1943L30.1239 20.656C29.7009 20.2329 29.7009 19.547 30.1239 19.1239Z" fill="white"/>
<path fill-rule="evenodd" clip-rule="evenodd" d="M11 13.0003C11 12.402 11.485 11.917 12.0833 11.917H14.25C14.8483 11.917 15.3333 12.402 15.3333 13.0003C15.3333 13.5986 14.8483 14.0837 14.25 14.0837H12.0833C11.485 14.0837 11 13.5986 11 13.0003Z" fill="white"/>
<path fill-rule="evenodd" clip-rule="evenodd" d="M32.667 13.0003C32.667 12.402 33.152 11.917 33.7503 11.917H35.917C36.5153 11.917 37.0003 12.402 37.0003 13.0003C37.0003 13.5986 36.5153 14.0837 35.917 14.0837H33.7503C33.152 14.0837 32.667 13.5986 32.667 13.0003Z" fill="white"/>
<path fill-rule="evenodd" clip-rule="evenodd" d="M17.876 19.1239C18.299 19.547 18.299 20.2329 17.876 20.656L16.3376 22.1943C15.9146 22.6174 15.2287 22.6174 14.8056 22.1943C14.3825 21.7713 14.3825 21.0853 14.8056 20.6623L16.3439 19.1239C16.767 18.7009 17.4529 18.7009 17.876 19.1239Z" fill="white"/>
<path fill-rule="evenodd" clip-rule="evenodd" d="M33.1943 3.80558C33.6174 4.22865 33.6174 4.91458 33.1943 5.33765L31.656 6.87598C31.2329 7.29905 30.547 7.29905 30.1239 6.87598C29.7009 6.45291 29.7009 5.76698 30.1239 5.34392L31.6623 3.80558C32.0853 3.38251 32.7713 3.38251 33.1943 3.80558Z" fill="white"/>
</svg>
