<svg width="37" height="39" viewBox="0 0 37 39" fill="none" xmlns="http://www.w3.org/2000/svg">
<rect y="2" width="37" height="37" rx="18.5" fill="#25252D"/>
<path fill-rule="evenodd" clip-rule="evenodd" d="M23.234 5.73429C23.657 5.31123 24.343 5.31123 24.766 5.73429L30.1827 11.151C30.6058 11.574 30.6058 12.26 30.1827 12.683C29.7596 13.1061 29.0737 13.1061 28.6506 12.683L24 8.03239L19.3494 12.683C18.9263 13.1061 18.2404 13.1061 17.8173 12.683C17.3942 12.26 17.3942 11.574 17.8173 11.151L23.234 5.73429Z" fill="white"/>
<path fill-rule="evenodd" clip-rule="evenodd" d="M23.234 13.3173C23.657 12.8942 24.343 12.8942 24.766 13.3173L30.1827 18.734C30.6058 19.157 30.6058 19.843 30.1827 20.266C29.7596 20.6891 29.0737 20.6891 28.6506 20.266L24 15.6154L19.3494 20.266C18.9263 20.6891 18.2404 20.6891 17.8173 20.266C17.3942 19.843 17.3942 19.157 17.8173 18.734L23.234 13.3173Z" fill="white"/>
</svg>
