<svg width="180" height="107" viewBox="0 0 180 107" fill="none" xmlns="http://www.w3.org/2000/svg">
<path d="M20.592 46.848C23.232 46.848 25.584 47.376 27.648 48.432C29.712 49.44 31.32 50.88 32.472 52.752C33.624 54.576 34.2 56.64 34.2 58.944C34.2 61.872 33.312 64.656 31.536 67.296C29.76 69.936 27.24 72.072 23.976 73.704C20.76 75.288 17.064 76.08 12.888 76.08C10.92 76.08 8.976 75.864 7.056 75.432C5.136 75.048 3.432 74.496 1.944 73.776L5.184 64.848C11.376 67.92 17.472 69.96 23.472 70.968C23.952 69.432 24.192 67.824 24.192 66.144C24.192 62.256 22.68 59.352 19.656 57.432C16.68 55.512 11.88 54.624 5.256 54.768V52.536L21.96 36.48L5.256 39.432L5.04 42.24H2.736V26.76H32.184V34.464L14.328 47.712C16.344 47.136 18.432 46.848 20.592 46.848ZM69.4733 26.76V34.536L55.7933 75H41.5373L64.7213 36.048L39.6653 39.432L39.4493 42.24H37.1453V26.76H69.4733Z" fill="white" fill-opacity="0.1"/>
</svg>
