<svg width="72" height="72" viewBox="0 0 72 72" fill="none" xmlns="http://www.w3.org/2000/svg">
<path d="M72 36C72 55.8823 55.8823 72 36 72C16.1178 72 0 55.8823 0 36C0 16.1178 16.1178 0 36 0C55.8823 0 72 16.1178 72 36Z" fill="#FFB800"/>
<path d="M9 36C9 19.9837 21.536 7 37 7C52.464 7 65 19.9837 65 36C65 52.0163 52.464 65 37 65C21.536 65 9 52.0163 9 36Z" fill="white" fill-opacity="0.4"/>
<path d="M26 53H33.5158L36.0475 47.5503C36.7199 46.0846 37.3924 44.6188 38.0649 42.8899H38.2231C39.0142 44.6188 39.6867 46.0846 40.3987 47.5503L43.1282 53H51L42.8908 38.906L63.5 12L58 7L52 3.5L40.8734 30.0362C40.2801 31.3517 39.6472 32.8175 38.9747 34.6215H38.8165C37.9858 32.8175 37.3528 31.3517 36.6804 30.0362L34.307 25H26.4351L34.0696 38.6054L26 53Z" fill="white"/>
</svg>
