<svg width="128" height="128" viewBox="0 0 128 128" fill="none" xmlns="http://www.w3.org/2000/svg">
<path d="M119.878 60C119.878 93.1371 93.0422 120 59.939 120C26.8359 120 0.000488281 93.1371 0.000488281 60C0.000488281 26.8629 26.8359 0 59.939 0C93.0422 0 119.878 26.8629 119.878 60Z" fill="url(#paint0_linear_7_557)"/>
<path d="M119.878 60C119.878 93.1371 93.0422 120 59.939 120C26.8359 120 0.000488281 93.1371 0.000488281 60C0.000488281 26.8629 26.8359 0 59.939 0C93.0422 0 119.878 26.8629 119.878 60Z" fill="url(#paint1_linear_7_557)"/>
<path d="M119.878 60.001C119.878 93.1381 93.0422 120.001 59.939 120.001C26.8359 120.001 0.000488281 93.1381 0.000488281 60.001C15.4846 80.0004 30.3323 88.5004 63.4355 88.5004C96.5386 88.5004 85.4129 76 119.878 60.001Z" fill="white" fill-opacity="0.1"/>
<path d="M88.9094 53.5C88.9094 69.7924 75.7153 83 59.4396 83C43.1639 83 29.9698 69.7924 29.9698 53.5C29.9698 37.2076 43.1639 24 59.4396 24C75.7153 24 88.9094 37.2076 88.9094 53.5Z" fill="white"/>
<path d="M48.9903 50.9678H51.0702C51.6029 50.9678 52.0383 50.8747 52.3765 50.6885C52.7232 50.4938 52.981 50.223 53.1501 49.876C53.3192 49.5205 53.4038 49.1016 53.4038 48.6191C53.4038 48.2467 53.3235 47.904 53.1628 47.5908C53.0106 47.2777 52.7739 47.028 52.4526 46.8418C52.1313 46.6471 51.7213 46.5498 51.2224 46.5498C50.8842 46.5498 50.5545 46.6217 50.2332 46.7656C49.9119 46.901 49.6456 47.0957 49.4342 47.3496C49.2313 47.6035 49.1298 47.9124 49.1298 48.2764H44.8432C44.8432 47.2269 45.1307 46.3298 45.7056 45.585C46.289 44.8317 47.0542 44.2562 48.0011 43.8584C48.9565 43.4521 49.9838 43.249 51.0829 43.249C52.3934 43.249 53.5433 43.4521 54.5325 43.8584C55.5217 44.2562 56.2911 44.8486 56.8407 45.6357C57.3987 46.4144 57.6777 47.3792 57.6777 48.5303C57.6777 49.165 57.5298 49.7617 57.2338 50.3203C56.9379 50.8789 56.5236 51.3698 55.991 51.793C55.4583 52.2161 54.8327 52.5505 54.114 52.7959C53.4038 53.0329 52.6259 53.1514 51.7804 53.1514H48.9903V50.9678ZM48.9903 54.1543V52.0215H51.7804C52.702 52.0215 53.5433 52.1273 54.3042 52.3389C55.0652 52.542 55.7204 52.8467 56.27 53.2529C56.8196 53.6592 57.2423 54.1628 57.5382 54.7637C57.8341 55.3561 57.9821 56.0374 57.9821 56.8076C57.9821 57.6709 57.8088 58.4411 57.4621 59.1182C57.1155 59.7952 56.6293 60.3665 56.0037 60.832C55.378 61.2975 54.6466 61.653 53.8096 61.8984C52.9726 62.1354 52.0637 62.2539 51.0829 62.2539C50.3135 62.2539 49.5441 62.1523 48.7747 61.9492C48.0053 61.7376 47.3036 61.416 46.6695 60.9844C46.0354 60.5443 45.5238 59.9857 45.1349 59.3086C44.7544 58.623 44.5642 57.8063 44.5642 56.8584H48.8508C48.8508 57.2477 48.9565 57.6032 49.1679 57.9248C49.3877 58.238 49.6794 58.4876 50.043 58.6738C50.4065 58.86 50.7997 58.9531 51.2224 58.9531C51.7466 58.9531 52.1905 58.8558 52.5541 58.6611C52.9261 58.458 53.2093 58.1872 53.4038 57.8486C53.5982 57.5101 53.6955 57.1335 53.6955 56.7188C53.6955 56.0924 53.5898 55.5931 53.3784 55.2207C53.1755 54.8483 52.8754 54.5775 52.478 54.4082C52.089 54.2389 51.6198 54.1543 51.0702 54.1543H48.9903Z" fill="#141418"/>
<path d="M72.998 43.5156V45.8008L66.0988 62H61.5839L68.4957 46.8164H59.6815V43.5156H72.998Z" fill="#141418"/>
<path d="M119.877 60C119.877 93.1371 93.0417 120 59.9386 120C26.8354 120 0 93.1371 0 60C0 26.8629 26.8354 0 59.9386 0C93.0417 0 119.877 26.8629 119.877 60Z" fill="url(#paint2_linear_7_557)"/>
<path d="M119.877 60C119.877 93.1371 93.0417 120 59.9386 120C26.8354 120 0 93.1371 0 60C0 26.8629 26.8354 0 59.9386 0C93.0417 0 119.877 26.8629 119.877 60Z" fill="url(#paint3_linear_7_557)"/>
<g filter="url(#filter0_f_7_557)">
<path d="M119.378 56.5001C124.873 89.9993 93.0417 120.001 59.9386 120.001C26.8354 120.001 8.99109 97.1371 8.99109 64C8.99115 42.4992 27.8349 64 60.938 64C90.4083 64 106.402 -22.6069 119.378 56.5001Z" fill="url(#paint4_linear_7_557)" fill-opacity="0.4"/>
<path d="M119.378 56.5001C124.873 89.9993 93.0417 120.001 59.9386 120.001C26.8354 120.001 8.99109 97.1371 8.99109 64C8.99115 42.4992 27.8349 64 60.938 64C90.4083 64 106.402 -22.6069 119.378 56.5001Z" fill="url(#paint5_linear_7_557)" fill-opacity="0.3"/>
</g>
<g filter="url(#filter1_df_7_557)">
<path d="M92.9053 56.5C92.9053 72.7924 79.7112 86 63.4355 86C47.1598 86 33.9657 72.7924 33.9657 56.5C33.9657 40.2076 47.1598 27 63.4355 27C79.7112 27 92.9053 40.2076 92.9053 56.5Z" fill="black" fill-opacity="0.1" shape-rendering="crispEdges"/>
</g>
<g filter="url(#filter2_d_7_557)">
<path d="M88.9089 53.5C88.9089 69.7924 75.7148 83 59.4391 83C43.1634 83 29.9693 69.7924 29.9693 53.5C29.9693 37.2076 43.1634 24 59.4391 24C75.7148 24 88.9089 37.2076 88.9089 53.5Z" fill="white"/>
<path d="M88.9089 53.5C88.9089 69.7924 75.7148 83 59.4391 83C43.1634 83 29.9693 69.7924 29.9693 53.5C29.9693 37.2076 43.1634 24 59.4391 24C75.7148 24 88.9089 37.2076 88.9089 53.5Z" fill="url(#paint6_radial_7_557)" fill-opacity="0.4"/>
</g>
<path d="M48.9898 50.9678H51.0697C51.6024 50.9678 52.0378 50.8747 52.376 50.6885C52.7227 50.4938 52.9805 50.223 53.1496 49.876C53.3187 49.5205 53.4033 49.1016 53.4033 48.6191C53.4033 48.2467 53.323 47.904 53.1623 47.5908C53.0101 47.2777 52.7734 47.028 52.4521 46.8418C52.1308 46.6471 51.7208 46.5498 51.2219 46.5498C50.8837 46.5498 50.554 46.6217 50.2327 46.7656C49.9114 46.901 49.6451 47.0957 49.4337 47.3496C49.2308 47.6035 49.1294 47.9124 49.1294 48.2764H44.8427C44.8427 47.2269 45.1302 46.3298 45.7051 45.585C46.2885 44.8317 47.0537 44.2562 48.0006 43.8584C48.956 43.4521 49.9833 43.249 51.0824 43.249C52.3929 43.249 53.5428 43.4521 54.532 43.8584C55.5212 44.2562 56.2906 44.8486 56.8402 45.6357C57.3982 46.4144 57.6772 47.3792 57.6772 48.5303C57.6772 49.165 57.5293 49.7617 57.2334 50.3203C56.9374 50.8789 56.5231 51.3698 55.9905 51.793C55.4578 52.2161 54.8322 52.5505 54.1135 52.7959C53.4033 53.0329 52.6254 53.1514 51.78 53.1514H48.9898V50.9678ZM48.9898 54.1543V52.0215H51.78C52.7015 52.0215 53.5428 52.1273 54.3037 52.3389C55.0647 52.542 55.7199 52.8467 56.2695 53.2529C56.8191 53.6592 57.2418 54.1628 57.5377 54.7637C57.8336 55.3561 57.9816 56.0374 57.9816 56.8076C57.9816 57.6709 57.8083 58.4411 57.4616 59.1182C57.115 59.7952 56.6288 60.3665 56.0032 60.832C55.3775 61.2975 54.6462 61.653 53.8091 61.8984C52.9721 62.1354 52.0632 62.2539 51.0824 62.2539C50.313 62.2539 49.5436 62.1523 48.7742 61.9492C48.0049 61.7376 47.3031 61.416 46.669 60.9844C46.0349 60.5443 45.5233 59.9857 45.1344 59.3086C44.754 58.623 44.5637 57.8063 44.5637 56.8584H48.8503C48.8503 57.2477 48.956 57.6032 49.1674 57.9248C49.3872 58.238 49.6789 58.4876 50.0425 58.6738C50.406 58.86 50.7992 58.9531 51.2219 58.9531C51.7461 58.9531 52.19 58.8558 52.5536 58.6611C52.9256 58.458 53.2088 58.1872 53.4033 57.8486C53.5978 57.5101 53.695 57.1335 53.695 56.7188C53.695 56.0924 53.5893 55.5931 53.3779 55.2207C53.175 54.8483 52.8749 54.5775 52.4775 54.4082C52.0886 54.2389 51.6193 54.1543 51.0697 54.1543H48.9898Z" fill="#141418"/>
<path d="M48.9898 50.9678H51.0697C51.6024 50.9678 52.0378 50.8747 52.376 50.6885C52.7227 50.4938 52.9805 50.223 53.1496 49.876C53.3187 49.5205 53.4033 49.1016 53.4033 48.6191C53.4033 48.2467 53.323 47.904 53.1623 47.5908C53.0101 47.2777 52.7734 47.028 52.4521 46.8418C52.1308 46.6471 51.7208 46.5498 51.2219 46.5498C50.8837 46.5498 50.554 46.6217 50.2327 46.7656C49.9114 46.901 49.6451 47.0957 49.4337 47.3496C49.2308 47.6035 49.1294 47.9124 49.1294 48.2764H44.8427C44.8427 47.2269 45.1302 46.3298 45.7051 45.585C46.2885 44.8317 47.0537 44.2562 48.0006 43.8584C48.956 43.4521 49.9833 43.249 51.0824 43.249C52.3929 43.249 53.5428 43.4521 54.532 43.8584C55.5212 44.2562 56.2906 44.8486 56.8402 45.6357C57.3982 46.4144 57.6772 47.3792 57.6772 48.5303C57.6772 49.165 57.5293 49.7617 57.2334 50.3203C56.9374 50.8789 56.5231 51.3698 55.9905 51.793C55.4578 52.2161 54.8322 52.5505 54.1135 52.7959C53.4033 53.0329 52.6254 53.1514 51.78 53.1514H48.9898V50.9678ZM48.9898 54.1543V52.0215H51.78C52.7015 52.0215 53.5428 52.1273 54.3037 52.3389C55.0647 52.542 55.7199 52.8467 56.2695 53.2529C56.8191 53.6592 57.2418 54.1628 57.5377 54.7637C57.8336 55.3561 57.9816 56.0374 57.9816 56.8076C57.9816 57.6709 57.8083 58.4411 57.4616 59.1182C57.115 59.7952 56.6288 60.3665 56.0032 60.832C55.3775 61.2975 54.6462 61.653 53.8091 61.8984C52.9721 62.1354 52.0632 62.2539 51.0824 62.2539C50.313 62.2539 49.5436 62.1523 48.7742 61.9492C48.0049 61.7376 47.3031 61.416 46.669 60.9844C46.0349 60.5443 45.5233 59.9857 45.1344 59.3086C44.754 58.623 44.5637 57.8063 44.5637 56.8584H48.8503C48.8503 57.2477 48.956 57.6032 49.1674 57.9248C49.3872 58.238 49.6789 58.4876 50.0425 58.6738C50.406 58.86 50.7992 58.9531 51.2219 58.9531C51.7461 58.9531 52.19 58.8558 52.5536 58.6611C52.9256 58.458 53.2088 58.1872 53.4033 57.8486C53.5978 57.5101 53.695 57.1335 53.695 56.7188C53.695 56.0924 53.5893 55.5931 53.3779 55.2207C53.175 54.8483 52.8749 54.5775 52.4775 54.4082C52.0886 54.2389 51.6193 54.1543 51.0697 54.1543H48.9898Z" fill="url(#paint7_linear_7_557)"/>
<path d="M72.9975 43.5156V45.8008L66.0983 62H61.5834L68.4952 46.8164H59.681V43.5156H72.9975Z" fill="#141418"/>
<path d="M72.9975 43.5156V45.8008L66.0983 62H61.5834L68.4952 46.8164H59.681V43.5156H72.9975Z" fill="url(#paint8_linear_7_557)"/>
<g filter="url(#filter3_f_7_557)">
<path d="M47.1203 13.8971C48.3617 16.0494 44.9136 20.3686 39.4189 23.5442C33.9242 26.7199 28.4635 27.5494 27.2221 25.3971C25.9808 23.2448 29.4288 18.9256 34.9235 15.75C40.4183 12.5744 45.8789 11.7448 47.1203 13.8971Z" fill="white" fill-opacity="0.8"/>
</g>
<g filter="url(#filter4_f_7_557)">
<path d="M97.2925 96.7855C98.1798 98.3239 96.9349 100.706 94.5118 102.107C92.0888 103.507 89.4053 103.395 88.518 101.857C87.6307 100.318 88.8756 97.9358 91.2986 96.5355C93.7216 95.1351 96.4052 95.247 97.2925 96.7855Z" fill="white" fill-opacity="0.3"/>
</g>
<g filter="url(#filter5_f_7_557)">
<path d="M109.774 81.0257C111.152 82.1445 110.841 84.815 109.079 86.9905C107.317 89.166 104.771 90.0227 103.393 88.9039C102.015 87.7851 102.326 85.1146 104.088 82.9391C105.85 80.7636 108.396 79.9069 109.774 81.0257Z" fill="white" fill-opacity="0.3"/>
</g>
<defs>
<filter id="filter0_f_7_557" x="0.991089" y="15.1858" width="127.009" height="112.815" filterUnits="userSpaceOnUse" color-interpolation-filters="sRGB">
<feFlood flood-opacity="0" result="BackgroundImageFix"/>
<feBlend mode="normal" in="SourceGraphic" in2="BackgroundImageFix" result="shape"/>
<feGaussianBlur stdDeviation="4" result="effect1_foregroundBlur_7_557"/>
</filter>
<filter id="filter1_df_7_557" x="15.9657" y="9" width="98.9396" height="99" filterUnits="userSpaceOnUse" color-interpolation-filters="sRGB">
<feFlood flood-opacity="0" result="BackgroundImageFix"/>
<feColorMatrix in="SourceAlpha" type="matrix" values="0 0 0 0 0 0 0 0 0 0 0 0 0 0 0 0 0 0 127 0" result="hardAlpha"/>
<feOffset dx="2" dy="2"/>
<feGaussianBlur stdDeviation="10"/>
<feComposite in2="hardAlpha" operator="out"/>
<feColorMatrix type="matrix" values="0 0 0 0 0 0 0 0 0 0 0 0 0 0 0 0 0 0 0.15 0"/>
<feBlend mode="normal" in2="BackgroundImageFix" result="effect1_dropShadow_7_557"/>
<feBlend mode="normal" in="SourceGraphic" in2="effect1_dropShadow_7_557" result="shape"/>
<feGaussianBlur stdDeviation="5" result="effect2_foregroundBlur_7_557"/>
</filter>
<filter id="filter2_d_7_557" x="11.9693" y="6" width="98.9396" height="99" filterUnits="userSpaceOnUse" color-interpolation-filters="sRGB">
<feFlood flood-opacity="0" result="BackgroundImageFix"/>
<feColorMatrix in="SourceAlpha" type="matrix" values="0 0 0 0 0 0 0 0 0 0 0 0 0 0 0 0 0 0 127 0" result="hardAlpha"/>
<feOffset dx="2" dy="2"/>
<feGaussianBlur stdDeviation="10"/>
<feComposite in2="hardAlpha" operator="out"/>
<feColorMatrix type="matrix" values="0 0 0 0 0 0 0 0 0 0 0 0 0 0 0 0 0 0 0.15 0"/>
<feBlend mode="normal" in2="BackgroundImageFix" result="effect1_dropShadow_7_557"/>
<feBlend mode="normal" in="SourceGraphic" in2="effect1_dropShadow_7_557" result="shape"/>
</filter>
<filter id="filter3_f_7_557" x="22.9692" y="8.7002" width="28.4041" height="21.8938" filterUnits="userSpaceOnUse" color-interpolation-filters="sRGB">
<feFlood flood-opacity="0" result="BackgroundImageFix"/>
<feBlend mode="normal" in="SourceGraphic" in2="BackgroundImageFix" result="shape"/>
<feGaussianBlur stdDeviation="2" result="effect1_foregroundBlur_7_557"/>
</filter>
<filter id="filter4_f_7_557" x="84.2318" y="91.5543" width="17.3469" height="15.5336" filterUnits="userSpaceOnUse" color-interpolation-filters="sRGB">
<feFlood flood-opacity="0" result="BackgroundImageFix"/>
<feBlend mode="normal" in="SourceGraphic" in2="BackgroundImageFix" result="shape"/>
<feGaussianBlur stdDeviation="2" result="effect1_foregroundBlur_7_557"/>
</filter>
<filter id="filter5_f_7_557" x="98.5325" y="76.5344" width="16.1019" height="16.8608" filterUnits="userSpaceOnUse" color-interpolation-filters="sRGB">
<feFlood flood-opacity="0" result="BackgroundImageFix"/>
<feBlend mode="normal" in="SourceGraphic" in2="BackgroundImageFix" result="shape"/>
<feGaussianBlur stdDeviation="2" result="effect1_foregroundBlur_7_557"/>
</filter>
<linearGradient id="paint0_linear_7_557" x1="11.0506" y1="13.0612" x2="118.178" y2="98.6599" gradientUnits="userSpaceOnUse">
<stop stop-color="#C4C4C4"/>
<stop offset="1" stop-color="#C4C4C4" stop-opacity="0"/>
</linearGradient>
<linearGradient id="paint1_linear_7_557" x1="11.0506" y1="13.0612" x2="118.178" y2="98.6599" gradientUnits="userSpaceOnUse">
<stop stop-color="#F3EC3C"/>
<stop offset="1" stop-color="#F7045C"/>
</linearGradient>
<linearGradient id="paint2_linear_7_557" x1="11.0501" y1="13.0612" x2="118.177" y2="98.6599" gradientUnits="userSpaceOnUse">
<stop stop-color="#C4C4C4"/>
<stop offset="1" stop-color="#C4C4C4" stop-opacity="0"/>
</linearGradient>
<linearGradient id="paint3_linear_7_557" x1="11.0501" y1="13.0612" x2="118.177" y2="98.6599" gradientUnits="userSpaceOnUse">
<stop stop-color="#F3EC3C"/>
<stop offset="1" stop-color="#E05D14"/>
</linearGradient>
<linearGradient id="paint4_linear_7_557" x1="36.9624" y1="33.5" x2="83.4877" y2="117.46" gradientUnits="userSpaceOnUse">
<stop stop-opacity="0"/>
<stop offset="1"/>
</linearGradient>
<linearGradient id="paint5_linear_7_557" x1="48.9501" y1="72" x2="-6.00182" y2="56.5294" gradientUnits="userSpaceOnUse">
<stop stop-color="white" stop-opacity="0"/>
<stop offset="1" stop-opacity="0.67"/>
</linearGradient>
<radialGradient id="paint6_radial_7_557" cx="0" cy="0" r="1" gradientUnits="userSpaceOnUse" gradientTransform="translate(45.4539 30.5) rotate(51.7198) scale(63.695 104.291)">
<stop offset="0.0699231" stop-color="white"/>
<stop offset="0.219507" stop-color="#979797" stop-opacity="0.72"/>
<stop offset="0.941645" stop-opacity="0.98"/>
</radialGradient>
<linearGradient id="paint7_linear_7_557" x1="45.9529" y1="33.5" x2="61.9615" y2="61.986" gradientUnits="userSpaceOnUse">
<stop stop-color="white" stop-opacity="0"/>
<stop offset="1"/>
</linearGradient>
<linearGradient id="paint8_linear_7_557" x1="45.9529" y1="33.5" x2="61.9615" y2="61.986" gradientUnits="userSpaceOnUse">
<stop stop-color="white" stop-opacity="0"/>
<stop offset="1"/>
</linearGradient>
</defs>
</svg>
