<svg width="57" height="56" viewBox="0 0 57 56" fill="none" xmlns="http://www.w3.org/2000/svg">
<path d="M40.9694 26.9999C40.9694 35.2841 34.2605 41.9998 25.9848 41.9998C17.709 41.9998 11.0001 35.2841 11.0001 26.9999C11.0001 18.7157 17.709 12 25.9848 12C34.2605 12 40.9694 18.7157 40.9694 26.9999Z" fill="url(#paint0_linear_7_670)"/>
<path d="M40.9694 26.9999C40.9694 35.2841 34.2605 41.9998 25.9848 41.9998C17.709 41.9998 11.0001 35.2841 11.0001 26.9999C11.0001 18.7157 17.709 12 25.9848 12C34.2605 12 40.9694 18.7157 40.9694 26.9999Z" fill="url(#paint1_linear_7_670)"/>
<path d="M40.9694 27.0001C40.9694 35.2843 34.2605 42 25.9848 42C17.709 42 11.0001 35.2843 11.0001 27.0001C14.8712 31.9999 18.5831 34.1249 26.8589 34.1249C35.1347 34.1249 32.3532 30.9998 40.9694 27.0001Z" fill="white" fill-opacity="0.1"/>
<path d="M33.2273 25.3749C33.2273 29.448 29.9288 32.7499 25.8599 32.7499C21.791 32.7499 18.4924 29.448 18.4924 25.3749C18.4924 21.3019 21.791 18 25.8599 18C29.9288 18 33.2273 21.3019 33.2273 25.3749Z" fill="white"/>
<path d="M23.2476 24.7418H23.7676C23.9007 24.7418 24.0096 24.7185 24.0941 24.672C24.1808 24.6233 24.2453 24.5556 24.2875 24.4689C24.3298 24.38 24.3509 24.2753 24.3509 24.1547C24.3509 24.0616 24.3309 23.9759 24.2907 23.8976C24.2527 23.8193 24.1935 23.7569 24.1132 23.7103C24.0328 23.6617 23.9303 23.6373 23.8056 23.6373C23.7211 23.6373 23.6386 23.6553 23.5583 23.6913C23.478 23.7251 23.4114 23.7738 23.3586 23.8373C23.3078 23.9007 23.2825 23.978 23.2825 24.069H22.2108C22.2108 23.8066 22.2827 23.5823 22.4264 23.3961C22.5723 23.2078 22.7635 23.0639 23.0003 22.9645C23.2391 22.8629 23.4959 22.8121 23.7707 22.8121C24.0984 22.8121 24.3858 22.8629 24.6331 22.9645C24.8804 23.0639 25.0728 23.212 25.2102 23.4088C25.3497 23.6035 25.4194 23.8447 25.4194 24.1324C25.4194 24.2911 25.3824 24.4403 25.3085 24.5799C25.2345 24.7196 25.1309 24.8423 24.9977 24.9481C24.8646 25.0539 24.7082 25.1375 24.5285 25.1988C24.3509 25.2581 24.1565 25.2877 23.9451 25.2877H23.2476V24.7418ZM23.2476 25.5384V25.0052H23.9451C24.1755 25.0052 24.3858 25.0317 24.5761 25.0846C24.7663 25.1354 24.9301 25.2115 25.0675 25.3131C25.2049 25.4147 25.3106 25.5405 25.3846 25.6908C25.4585 25.8389 25.4955 26.0092 25.4955 26.2018C25.4955 26.4176 25.4522 26.6101 25.3655 26.7794C25.2789 26.9487 25.1573 27.0915 25.0009 27.2078C24.8445 27.3242 24.6617 27.4131 24.4524 27.4744C24.2431 27.5337 24.0159 27.5633 23.7707 27.5633C23.5784 27.5633 23.386 27.5379 23.1937 27.4871C23.0013 27.4342 22.8259 27.3538 22.6674 27.2459C22.5088 27.1359 22.381 26.9963 22.2837 26.827C22.1886 26.6556 22.1411 26.4514 22.1411 26.2144H23.2127C23.2127 26.3118 23.2391 26.4006 23.292 26.481C23.3469 26.5593 23.4199 26.6218 23.5107 26.6683C23.6016 26.7149 23.6999 26.7381 23.8056 26.7381C23.9367 26.7381 24.0476 26.7138 24.1385 26.6651C24.2315 26.6143 24.3023 26.5466 24.3509 26.462C24.3996 26.3774 24.4239 26.2832 24.4239 26.1795C24.4239 26.023 24.3974 25.8981 24.3446 25.805C24.2939 25.7119 24.2188 25.6442 24.1195 25.6019C24.0223 25.5596 23.905 25.5384 23.7676 25.5384H23.2476Z" fill="#141418"/>
<path d="M29.2495 22.8788V23.4501L27.5247 27.4998H26.396L28.1239 23.704H25.9204V22.8788H29.2495Z" fill="#141418"/>
<path d="M40.9693 26.9999C40.9693 35.2841 34.2604 41.9998 25.9846 41.9998C17.7089 41.9998 11 35.2841 11 26.9999C11 18.7157 17.7089 12 25.9846 12C34.2604 12 40.9693 18.7157 40.9693 26.9999Z" fill="url(#paint2_linear_7_670)"/>
<path d="M40.9693 26.9999C40.9693 35.2841 34.2604 41.9998 25.9846 41.9998C17.7089 41.9998 11 35.2841 11 26.9999C11 18.7157 17.7089 12 25.9846 12C34.2604 12 40.9693 18.7157 40.9693 26.9999Z" fill="url(#paint3_linear_7_670)"/>
<g filter="url(#filter0_f_7_670)">
<path d="M40.8446 26.1249C42.2183 34.4996 34.2605 42 25.9847 42C17.7089 42 13.2478 36.2841 13.2478 27.9999C13.2478 22.6247 17.9587 27.9999 26.2345 27.9999C33.6021 27.9999 37.6006 6.3483 40.8446 26.1249Z" fill="url(#paint4_linear_7_670)" fill-opacity="0.4"/>
<path d="M40.8446 26.1249C42.2183 34.4996 34.2605 42 25.9847 42C17.7089 42 13.2478 36.2841 13.2478 27.9999C13.2478 22.6247 17.9587 27.9999 26.2345 27.9999C33.6021 27.9999 37.6006 6.3483 40.8446 26.1249Z" fill="url(#paint5_linear_7_670)" fill-opacity="0.3"/>
</g>
<g filter="url(#filter1_df_7_670)">
<path d="M34.2263 26.1249C34.2263 30.198 30.9278 33.4999 26.8588 33.4999C22.7899 33.4999 19.4914 30.198 19.4914 26.1249C19.4914 22.0519 22.7899 18.75 26.8588 18.75C30.9278 18.75 34.2263 22.0519 34.2263 26.1249Z" fill="black" fill-opacity="0.1" shape-rendering="crispEdges"/>
</g>
<g filter="url(#filter2_d_7_670)">
<path d="M33.2272 25.3749C33.2272 29.448 29.9287 32.7499 25.8598 32.7499C21.7908 32.7499 18.4923 29.448 18.4923 25.3749C18.4923 21.3019 21.7908 18 25.8598 18C29.9287 18 33.2272 21.3019 33.2272 25.3749Z" fill="white"/>
<path d="M33.2272 25.3749C33.2272 29.448 29.9287 32.7499 25.8598 32.7499C21.7908 32.7499 18.4923 29.448 18.4923 25.3749C18.4923 21.3019 21.7908 18 25.8598 18C29.9287 18 33.2272 21.3019 33.2272 25.3749Z" fill="url(#paint6_radial_7_670)" fill-opacity="0.4"/>
</g>
<path d="M27.3582 26.6747V27.4998H24.1369V26.8016L25.6208 25.2401C25.7518 25.0899 25.8575 24.9555 25.9378 24.837C26.0181 24.7164 26.0763 24.6074 26.1122 24.5101C26.1502 24.4128 26.1693 24.325 26.1693 24.2467C26.1693 24.1134 26.1492 24.0023 26.109 23.9134C26.071 23.8225 26.0139 23.7537 25.9378 23.7071C25.8638 23.6606 25.7719 23.6373 25.662 23.6373C25.5521 23.6373 25.4559 23.6691 25.3735 23.7325C25.291 23.796 25.2265 23.8828 25.18 23.9928C25.1357 24.1028 25.1135 24.2266 25.1135 24.3641H24.0418C24.0418 24.0806 24.1105 23.8214 24.2479 23.5865C24.3874 23.3517 24.5808 23.1644 24.8281 23.0248C25.0754 22.883 25.3618 22.8121 25.6873 22.8121C26.0276 22.8121 26.313 22.865 26.5434 22.9708C26.7738 23.0766 26.9471 23.23 27.0634 23.431C27.1817 23.6299 27.2409 23.8701 27.2409 24.1515C27.2409 24.3123 27.2156 24.4667 27.1648 24.6149C27.1141 24.763 27.0412 24.91 26.9461 25.056C26.8509 25.1999 26.7347 25.348 26.5973 25.5003C26.462 25.6527 26.3077 25.8146 26.1344 25.9859L25.5383 26.6747H27.3582Z" fill="#141418"/>
<path d="M27.3582 26.6747V27.4998H24.1369V26.8016L25.6208 25.2401C25.7518 25.0899 25.8575 24.9555 25.9378 24.837C26.0181 24.7164 26.0763 24.6074 26.1122 24.5101C26.1502 24.4128 26.1693 24.325 26.1693 24.2467C26.1693 24.1134 26.1492 24.0023 26.109 23.9134C26.071 23.8225 26.0139 23.7537 25.9378 23.7071C25.8638 23.6606 25.7719 23.6373 25.662 23.6373C25.5521 23.6373 25.4559 23.6691 25.3735 23.7325C25.291 23.796 25.2265 23.8828 25.18 23.9928C25.1357 24.1028 25.1135 24.2266 25.1135 24.3641H24.0418C24.0418 24.0806 24.1105 23.8214 24.2479 23.5865C24.3874 23.3517 24.5808 23.1644 24.8281 23.0248C25.0754 22.883 25.3618 22.8121 25.6873 22.8121C26.0276 22.8121 26.313 22.865 26.5434 22.9708C26.7738 23.0766 26.9471 23.23 27.0634 23.431C27.1817 23.6299 27.2409 23.8701 27.2409 24.1515C27.2409 24.3123 27.2156 24.4667 27.1648 24.6149C27.1141 24.763 27.0412 24.91 26.9461 25.056C26.8509 25.1999 26.7347 25.348 26.5973 25.5003C26.462 25.6527 26.3077 25.8146 26.1344 25.9859L25.5383 26.6747H27.3582Z" fill="url(#paint7_linear_7_670)"/>
<g filter="url(#filter3_f_7_670)">
<path d="M22.7801 15.4743C23.0904 16.0124 22.2284 17.0921 20.8547 17.8861C19.481 18.68 18.1159 18.8873 17.8055 18.3493C17.4952 17.8112 18.3572 16.7314 19.7309 15.9375C21.1045 15.1436 22.4697 14.9362 22.7801 15.4743Z" fill="white" fill-opacity="0.8"/>
</g>
<g filter="url(#filter4_f_7_670)">
<path d="M35.3231 36.1962C35.5449 36.5808 35.2337 37.1764 34.628 37.5265C34.0222 37.8766 33.3513 37.8486 33.1295 37.464C32.9077 37.0794 33.2189 36.4838 33.8247 36.1337C34.4304 35.7836 35.1013 35.8116 35.3231 36.1962Z" fill="white" fill-opacity="0.3"/>
</g>
<g filter="url(#filter5_f_7_670)">
<path d="M38.4435 32.2563C38.7881 32.5359 38.7103 33.2036 38.2698 33.7474C37.8293 34.2913 37.1928 34.5055 36.8482 34.2258C36.5036 33.9461 36.5814 33.2785 37.0219 32.7346C37.4624 32.1907 38.0988 31.9766 38.4435 32.2563Z" fill="white" fill-opacity="0.3"/>
</g>
<defs>
<filter id="filter0_f_7_670" x="5.2478" y="9.79639" width="43.7523" height="40.2036" filterUnits="userSpaceOnUse" color-interpolation-filters="sRGB">
<feFlood flood-opacity="0" result="BackgroundImageFix"/>
<feBlend mode="normal" in="SourceGraphic" in2="BackgroundImageFix" result="shape"/>
<feGaussianBlur stdDeviation="4" result="effect1_foregroundBlur_7_670"/>
</filter>
<filter id="filter1_df_7_670" x="1.49139" y="0.75" width="54.7349" height="54.7499" filterUnits="userSpaceOnUse" color-interpolation-filters="sRGB">
<feFlood flood-opacity="0" result="BackgroundImageFix"/>
<feColorMatrix in="SourceAlpha" type="matrix" values="0 0 0 0 0 0 0 0 0 0 0 0 0 0 0 0 0 0 127 0" result="hardAlpha"/>
<feOffset dx="2" dy="2"/>
<feGaussianBlur stdDeviation="10"/>
<feComposite in2="hardAlpha" operator="out"/>
<feColorMatrix type="matrix" values="0 0 0 0 0 0 0 0 0 0 0 0 0 0 0 0 0 0 0.15 0"/>
<feBlend mode="normal" in2="BackgroundImageFix" result="effect1_dropShadow_7_670"/>
<feBlend mode="normal" in="SourceGraphic" in2="effect1_dropShadow_7_670" result="shape"/>
<feGaussianBlur stdDeviation="5" result="effect2_foregroundBlur_7_670"/>
</filter>
<filter id="filter2_d_7_670" x="0.49231" y="0" width="54.7349" height="54.7499" filterUnits="userSpaceOnUse" color-interpolation-filters="sRGB">
<feFlood flood-opacity="0" result="BackgroundImageFix"/>
<feColorMatrix in="SourceAlpha" type="matrix" values="0 0 0 0 0 0 0 0 0 0 0 0 0 0 0 0 0 0 127 0" result="hardAlpha"/>
<feOffset dx="2" dy="2"/>
<feGaussianBlur stdDeviation="10"/>
<feComposite in2="hardAlpha" operator="out"/>
<feColorMatrix type="matrix" values="0 0 0 0 0 0 0 0 0 0 0 0 0 0 0 0 0 0 0.15 0"/>
<feBlend mode="normal" in2="BackgroundImageFix" result="effect1_dropShadow_7_670"/>
<feBlend mode="normal" in="SourceGraphic" in2="effect1_dropShadow_7_670" result="shape"/>
</filter>
<filter id="filter3_f_7_670" x="13.7422" y="11.175" width="13.1011" height="11.4734" filterUnits="userSpaceOnUse" color-interpolation-filters="sRGB">
<feFlood flood-opacity="0" result="BackgroundImageFix"/>
<feBlend mode="normal" in="SourceGraphic" in2="BackgroundImageFix" result="shape"/>
<feGaussianBlur stdDeviation="2" result="effect1_foregroundBlur_7_670"/>
</filter>
<filter id="filter4_f_7_670" x="29.0579" y="31.8884" width="10.3367" height="9.8833" filterUnits="userSpaceOnUse" color-interpolation-filters="sRGB">
<feFlood flood-opacity="0" result="BackgroundImageFix"/>
<feBlend mode="normal" in="SourceGraphic" in2="BackgroundImageFix" result="shape"/>
<feGaussianBlur stdDeviation="2" result="effect1_foregroundBlur_7_670"/>
</filter>
<filter id="filter5_f_7_670" x="32.6331" y="28.1334" width="10.0255" height="10.2152" filterUnits="userSpaceOnUse" color-interpolation-filters="sRGB">
<feFlood flood-opacity="0" result="BackgroundImageFix"/>
<feBlend mode="normal" in="SourceGraphic" in2="BackgroundImageFix" result="shape"/>
<feGaussianBlur stdDeviation="2" result="effect1_foregroundBlur_7_670"/>
</filter>
<linearGradient id="paint0_linear_7_670" x1="13.7627" y1="15.2653" x2="40.5442" y2="36.665" gradientUnits="userSpaceOnUse">
<stop stop-color="#C4C4C4"/>
<stop offset="1" stop-color="#C4C4C4" stop-opacity="0"/>
</linearGradient>
<linearGradient id="paint1_linear_7_670" x1="13.7627" y1="15.2653" x2="40.5442" y2="36.665" gradientUnits="userSpaceOnUse">
<stop stop-color="#F3EC3C"/>
<stop offset="1" stop-color="#F7045C"/>
</linearGradient>
<linearGradient id="paint2_linear_7_670" x1="13.7625" y1="15.2653" x2="40.5441" y2="36.665" gradientUnits="userSpaceOnUse">
<stop stop-color="#C4C4C4"/>
<stop offset="1" stop-color="#C4C4C4" stop-opacity="0"/>
</linearGradient>
<linearGradient id="paint3_linear_7_670" x1="13.7625" y1="15.2653" x2="40.5441" y2="36.665" gradientUnits="userSpaceOnUse">
<stop stop-color="#823CF3"/>
<stop offset="1" stop-color="#9F14E0"/>
</linearGradient>
<linearGradient id="paint4_linear_7_670" x1="20.2406" y1="20.3749" x2="31.8718" y2="41.3647" gradientUnits="userSpaceOnUse">
<stop stop-opacity="0"/>
<stop offset="1"/>
</linearGradient>
<linearGradient id="paint5_linear_7_670" x1="23.2376" y1="29.9998" x2="9.49959" y2="26.1322" gradientUnits="userSpaceOnUse">
<stop stop-color="white" stop-opacity="0"/>
<stop offset="1" stop-opacity="0.67"/>
</linearGradient>
<radialGradient id="paint6_radial_7_670" cx="0" cy="0" r="1" gradientUnits="userSpaceOnUse" gradientTransform="translate(22.3635 19.625) rotate(51.7196) scale(15.9237 26.0727)">
<stop offset="0.0699231" stop-color="white"/>
<stop offset="0.219507" stop-color="#979797" stop-opacity="0.72"/>
<stop offset="0.941645" stop-opacity="0.98"/>
</radialGradient>
<linearGradient id="paint7_linear_7_670" x1="23.9947" y1="20.3749" x2="28.6631" y2="24.6624" gradientUnits="userSpaceOnUse">
<stop stop-color="white" stop-opacity="0"/>
<stop offset="1"/>
</linearGradient>
</defs>
</svg>
