<svg width="95" height="94" viewBox="0 0 95 94" fill="none" xmlns="http://www.w3.org/2000/svg">
<path d="M86.9133 43.4997C86.9133 66.9716 67.9049 85.9993 44.4568 85.9993C21.0088 85.9993 2.00035 66.9716 2.00035 43.4997C2.00035 20.0277 21.0088 1 44.4568 1C67.9049 1 86.9133 20.0277 86.9133 43.4997Z" fill="url(#paint0_linear_7_299)"/>
<path d="M86.9133 43.4997C86.9133 66.9716 67.9049 85.9993 44.4568 85.9993C21.0088 85.9993 2.00035 66.9716 2.00035 43.4997C2.00035 20.0277 21.0088 1 44.4568 1C67.9049 1 86.9133 20.0277 86.9133 43.4997Z" fill="url(#paint1_linear_7_299)"/>
<path d="M86.9133 43.5004C86.9133 66.9723 67.9049 86 44.4568 86C21.0088 86 2.00037 66.9723 2.00037 43.5004C12.9683 57.6665 23.4854 63.6873 46.9335 63.6873C70.3815 63.6873 62.5009 54.8329 86.9133 43.5004Z" fill="white" fill-opacity="0.1"/>
<path d="M64.9774 38.8955C64.9774 50.4359 55.6316 59.7912 44.103 59.7912C32.5744 59.7912 23.2286 50.4359 23.2286 38.8955C23.2286 27.3552 32.5744 17.9999 44.103 17.9999C55.6316 17.9999 64.9774 27.3552 64.9774 38.8955Z" fill="white"/>
<path d="M36.7015 37.1019H38.1747C38.552 37.1019 38.8604 37.036 39.1 36.9041C39.3455 36.7662 39.5282 36.5744 39.648 36.3286C39.7678 36.0768 39.8276 35.78 39.8276 35.4383C39.8276 35.1745 39.7708 34.9317 39.657 34.7099C39.5492 34.4881 39.3815 34.3113 39.1539 34.1794C38.9263 34.0415 38.6359 33.9726 38.2825 33.9726C38.043 33.9726 37.8094 34.0235 37.5818 34.1254C37.3542 34.2213 37.1656 34.3592 37.0159 34.5391C36.8721 34.7189 36.8003 34.9377 36.8003 35.1955H33.7639C33.7639 34.4522 33.9675 33.8167 34.3748 33.2891C34.788 32.7556 35.33 32.3479 36.0008 32.0662C36.6775 31.7784 37.4051 31.6345 38.1837 31.6345C39.112 31.6345 39.9265 31.7784 40.6272 32.0662C41.3279 32.3479 41.8728 32.7676 42.2621 33.3251C42.6574 33.8766 42.855 34.5601 42.855 35.3754C42.855 35.825 42.7502 36.2476 42.5406 36.6433C42.331 37.039 42.0375 37.3867 41.6602 37.6864C41.2829 37.9862 40.8398 38.223 40.3307 38.3968C39.8276 38.5647 39.2767 38.6486 38.6778 38.6486H36.7015V37.1019ZM36.7015 39.359V37.8483H38.6778C39.3306 37.8483 39.9265 37.9232 40.4655 38.0731C41.0045 38.217 41.4686 38.4328 41.8579 38.7206C42.2472 39.0083 42.5466 39.365 42.7562 39.7907C42.9658 40.2103 43.0706 40.6929 43.0706 41.2384C43.0706 41.8499 42.9478 42.3955 42.7023 42.8751C42.4568 43.3547 42.1124 43.7593 41.6692 44.0891C41.226 44.4188 40.708 44.6706 40.1151 44.8444C39.5222 45.0123 38.8784 45.0962 38.1837 45.0962C37.6387 45.0962 37.0937 45.0243 36.5487 44.8804C36.0038 44.7305 35.5067 44.5027 35.0575 44.197C34.6083 43.8852 34.246 43.4896 33.9705 43.01C33.701 42.5244 33.5663 41.9459 33.5663 41.2744H36.6026C36.6026 41.5502 36.6775 41.802 36.8272 42.0298C36.9829 42.2516 37.1895 42.4284 37.4471 42.5603C37.7046 42.6922 37.9831 42.7582 38.2825 42.7582C38.6538 42.7582 38.9682 42.6892 39.2258 42.5513C39.4893 42.4075 39.6899 42.2156 39.8276 41.9758C39.9654 41.736 40.0343 41.4693 40.0343 41.1755C40.0343 40.7319 39.9594 40.3782 39.8097 40.1144C39.6659 39.8506 39.4533 39.6588 39.1719 39.5389C38.8964 39.419 38.564 39.359 38.1747 39.359H36.7015Z" fill="#141418"/>
<path d="M53.7069 31.8234V33.442L48.8199 44.9164H45.6219L50.5178 34.1614H44.2744V31.8234H53.7069Z" fill="#141418"/>
<path d="M86.913 43.4997C86.913 66.9716 67.9045 85.9993 44.4565 85.9993C21.0084 85.9993 2 66.9716 2 43.4997C2 20.0277 21.0084 1 44.4565 1C67.9045 1 86.913 20.0277 86.913 43.4997Z" fill="url(#paint2_linear_7_299)"/>
<path d="M86.913 43.4997C86.913 66.9716 67.9045 85.9993 44.4565 85.9993C21.0084 85.9993 2 66.9716 2 43.4997C2 20.0277 21.0084 1 44.4565 1C67.9045 1 86.913 20.0277 86.913 43.4997Z" fill="url(#paint3_linear_7_299)"/>
<g filter="url(#filter0_f_7_299)">
<path d="M86.5595 41.0205C90.4517 64.7489 67.9046 85.9999 44.4565 85.9999C21.0084 85.9999 8.36871 69.8049 8.36871 46.333C8.36875 31.1033 21.7164 46.333 45.1645 46.333C66.0392 46.333 77.3683 -15.0131 86.5595 41.0205Z" fill="url(#paint4_linear_7_299)" fill-opacity="0.4"/>
<path d="M86.5595 41.0205C90.4517 64.7489 67.9046 85.9999 44.4565 85.9999C21.0084 85.9999 8.36871 69.8049 8.36871 46.333C8.36875 31.1033 21.7164 46.333 45.1645 46.333C66.0392 46.333 77.3683 -15.0131 86.5595 41.0205Z" fill="url(#paint5_linear_7_299)" fill-opacity="0.3"/>
</g>
<g filter="url(#filter1_df_7_299)">
<path d="M67.8079 41.0205C67.8079 52.5609 58.4621 61.9162 46.9335 61.9162C35.4048 61.9162 26.059 52.5609 26.059 41.0205C26.059 29.4802 35.4048 20.1249 46.9335 20.1249C58.4621 20.1249 67.8079 29.4802 67.8079 41.0205Z" fill="black" fill-opacity="0.1" shape-rendering="crispEdges"/>
</g>
<g filter="url(#filter2_d_7_299)">
<path d="M64.9771 38.8955C64.9771 50.4359 55.6313 59.7912 44.1026 59.7912C32.574 59.7912 23.2282 50.4359 23.2282 38.8955C23.2282 27.3552 32.574 17.9999 44.1026 17.9999C55.6313 17.9999 64.9771 27.3552 64.9771 38.8955Z" fill="white"/>
<path d="M64.9771 38.8955C64.9771 50.4359 55.6313 59.7912 44.1026 59.7912C32.574 59.7912 23.2282 50.4359 23.2282 38.8955C23.2282 27.3552 32.574 17.9999 44.1026 17.9999C55.6313 17.9999 64.9771 27.3552 64.9771 38.8955Z" fill="url(#paint6_radial_7_299)" fill-opacity="0.4"/>
</g>
<path d="M43.366 42.5783V44.9164H34.239V42.938L38.4432 38.5137C38.8145 38.0881 39.1139 37.7074 39.3415 37.3717C39.5691 37.03 39.7338 36.7212 39.8356 36.4455C39.9434 36.1697 39.9973 35.9209 39.9973 35.6991C39.9973 35.3214 39.9404 35.0067 39.8266 34.7549C39.7188 34.4971 39.5571 34.3023 39.3415 34.1704C39.1319 34.0385 38.8714 33.9726 38.56 33.9726C38.2485 33.9726 37.976 34.0625 37.7425 34.2423C37.5089 34.4222 37.3262 34.668 37.1945 34.9797C37.0687 35.2914 37.0058 35.6422 37.0058 36.0318H33.9695C33.9695 35.2285 34.1641 34.4941 34.5534 33.8287C34.9487 33.1632 35.4966 32.6327 36.1973 32.237C36.898 31.8354 37.7095 31.6345 38.6318 31.6345C39.596 31.6345 40.4045 31.7844 41.0573 32.0841C41.7101 32.3839 42.2012 32.8185 42.5306 33.388C42.8659 33.9516 43.0336 34.632 43.0336 35.4293C43.0336 35.8849 42.9618 36.3226 42.818 36.7422C42.6743 37.1619 42.4677 37.5785 42.1982 37.9922C41.9287 38.3998 41.5993 38.8195 41.21 39.2511C40.8267 39.6828 40.3896 40.1414 39.8985 40.627L38.2096 42.5783H43.366Z" fill="#141418"/>
<path d="M43.366 42.5783V44.9164H34.239V42.938L38.4432 38.5137C38.8145 38.0881 39.1139 37.7074 39.3415 37.3717C39.5691 37.03 39.7338 36.7212 39.8356 36.4455C39.9434 36.1697 39.9973 35.9209 39.9973 35.6991C39.9973 35.3214 39.9404 35.0067 39.8266 34.7549C39.7188 34.4971 39.5571 34.3023 39.3415 34.1704C39.1319 34.0385 38.8714 33.9726 38.56 33.9726C38.2485 33.9726 37.976 34.0625 37.7425 34.2423C37.5089 34.4222 37.3262 34.668 37.1945 34.9797C37.0687 35.2914 37.0058 35.6422 37.0058 36.0318H33.9695C33.9695 35.2285 34.1641 34.4941 34.5534 33.8287C34.9487 33.1632 35.4966 32.6327 36.1973 32.237C36.898 31.8354 37.7095 31.6345 38.6318 31.6345C39.596 31.6345 40.4045 31.7844 41.0573 32.0841C41.7101 32.3839 42.2012 32.8185 42.5306 33.388C42.8659 33.9516 43.0336 34.632 43.0336 35.4293C43.0336 35.8849 42.9618 36.3226 42.818 36.7422C42.6743 37.1619 42.4677 37.5785 42.1982 37.9922C41.9287 38.3998 41.5993 38.8195 41.21 39.2511C40.8267 39.6828 40.3896 40.1414 39.8985 40.627L38.2096 42.5783H43.366Z" fill="url(#paint7_linear_7_299)"/>
<path d="M54.2268 39.7997V42.1377H44.8123L44.6327 40.2852L49.8879 31.8234H52.2775L49.6813 36.0768L47.5253 39.7997H54.2268ZM52.9063 31.8234V44.9164H49.8789V31.8234H52.9063Z" fill="#141418"/>
<path d="M54.2268 39.7997V42.1377H44.8123L44.6327 40.2852L49.8879 31.8234H52.2775L49.6813 36.0768L47.5253 39.7997H54.2268ZM52.9063 31.8234V44.9164H49.8789V31.8234H52.9063Z" fill="url(#paint8_linear_7_299)"/>
<g filter="url(#filter3_f_7_299)">
<path d="M35.3769 10.8437C36.2562 12.3682 33.8138 15.4276 29.9217 17.677C26.0296 19.9264 22.1616 20.514 21.2823 18.9894C20.403 17.4649 22.8454 14.4055 26.7375 12.1561C30.6296 9.90673 34.4976 9.31912 35.3769 10.8437Z" fill="white" fill-opacity="0.8"/>
</g>
<g filter="url(#filter4_f_7_299)">
<path d="M70.9155 69.5559C71.544 70.6456 70.6622 72.3331 68.9459 73.325C67.2296 74.3169 65.3288 74.2376 64.7003 73.1479C64.0718 72.0582 64.9536 70.3707 66.6699 69.3788C68.3862 68.3869 70.287 68.4662 70.9155 69.5559Z" fill="white" fill-opacity="0.3"/>
</g>
<g filter="url(#filter5_f_7_299)">
<path d="M79.7565 58.3927C80.7329 59.1852 80.5127 61.0768 79.2646 62.6178C78.0164 64.1587 76.2131 64.7655 75.2367 63.9731C74.2603 63.1806 74.4806 61.289 75.7287 59.748C76.9768 58.2071 78.7801 57.6003 79.7565 58.3927Z" fill="white" fill-opacity="0.3"/>
</g>
<defs>
<filter id="filter0_f_7_299" x="0.368713" y="9.4231" width="94.6313" height="84.5768" filterUnits="userSpaceOnUse" color-interpolation-filters="sRGB">
<feFlood flood-opacity="0" result="BackgroundImageFix"/>
<feBlend mode="normal" in="SourceGraphic" in2="BackgroundImageFix" result="shape"/>
<feGaussianBlur stdDeviation="4" result="effect1_foregroundBlur_7_299"/>
</filter>
<filter id="filter1_df_7_299" x="8.05902" y="2.12488" width="81.7489" height="81.7914" filterUnits="userSpaceOnUse" color-interpolation-filters="sRGB">
<feFlood flood-opacity="0" result="BackgroundImageFix"/>
<feColorMatrix in="SourceAlpha" type="matrix" values="0 0 0 0 0 0 0 0 0 0 0 0 0 0 0 0 0 0 127 0" result="hardAlpha"/>
<feOffset dx="2" dy="2"/>
<feGaussianBlur stdDeviation="10"/>
<feComposite in2="hardAlpha" operator="out"/>
<feColorMatrix type="matrix" values="0 0 0 0 0 0 0 0 0 0 0 0 0 0 0 0 0 0 0.15 0"/>
<feBlend mode="normal" in2="BackgroundImageFix" result="effect1_dropShadow_7_299"/>
<feBlend mode="normal" in="SourceGraphic" in2="effect1_dropShadow_7_299" result="shape"/>
<feGaussianBlur stdDeviation="5" result="effect2_foregroundBlur_7_299"/>
</filter>
<filter id="filter2_d_7_299" x="5.22821" y="-0.00012207" width="81.7489" height="81.7914" filterUnits="userSpaceOnUse" color-interpolation-filters="sRGB">
<feFlood flood-opacity="0" result="BackgroundImageFix"/>
<feColorMatrix in="SourceAlpha" type="matrix" values="0 0 0 0 0 0 0 0 0 0 0 0 0 0 0 0 0 0 127 0" result="hardAlpha"/>
<feOffset dx="2" dy="2"/>
<feGaussianBlur stdDeviation="10"/>
<feComposite in2="hardAlpha" operator="out"/>
<feColorMatrix type="matrix" values="0 0 0 0 0 0 0 0 0 0 0 0 0 0 0 0 0 0 0.15 0"/>
<feBlend mode="normal" in2="BackgroundImageFix" result="effect1_dropShadow_7_299"/>
<feBlend mode="normal" in="SourceGraphic" in2="effect1_dropShadow_7_299" result="shape"/>
</filter>
<filter id="filter3_f_7_299" x="17.1031" y="5.99585" width="22.4529" height="17.8414" filterUnits="userSpaceOnUse" color-interpolation-filters="sRGB">
<feFlood flood-opacity="0" result="BackgroundImageFix"/>
<feBlend mode="normal" in="SourceGraphic" in2="BackgroundImageFix" result="shape"/>
<feGaussianBlur stdDeviation="2" result="effect1_foregroundBlur_7_299"/>
</filter>
<filter id="filter4_f_7_299" x="60.4976" y="64.6837" width="14.6207" height="13.3363" filterUnits="userSpaceOnUse" color-interpolation-filters="sRGB">
<feFlood flood-opacity="0" result="BackgroundImageFix"/>
<feBlend mode="normal" in="SourceGraphic" in2="BackgroundImageFix" result="shape"/>
<feGaussianBlur stdDeviation="2" result="effect1_foregroundBlur_7_299"/>
</filter>
<filter id="filter5_f_7_299" x="70.6272" y="54.0448" width="13.7389" height="14.2762" filterUnits="userSpaceOnUse" color-interpolation-filters="sRGB">
<feFlood flood-opacity="0" result="BackgroundImageFix"/>
<feBlend mode="normal" in="SourceGraphic" in2="BackgroundImageFix" result="shape"/>
<feGaussianBlur stdDeviation="2" result="effect1_foregroundBlur_7_299"/>
</filter>
<linearGradient id="paint0_linear_7_299" x1="9.82752" y1="10.2516" x2="85.7086" y2="70.8841" gradientUnits="userSpaceOnUse">
<stop stop-color="#C4C4C4"/>
<stop offset="1" stop-color="#C4C4C4" stop-opacity="0"/>
</linearGradient>
<linearGradient id="paint1_linear_7_299" x1="9.82752" y1="10.2516" x2="85.7086" y2="70.8841" gradientUnits="userSpaceOnUse">
<stop stop-color="#F3EC3C"/>
<stop offset="1" stop-color="#F7045C"/>
</linearGradient>
<linearGradient id="paint2_linear_7_299" x1="9.82717" y1="10.2516" x2="85.7082" y2="70.8841" gradientUnits="userSpaceOnUse">
<stop stop-color="#C4C4C4"/>
<stop offset="1" stop-color="#C4C4C4" stop-opacity="0"/>
</linearGradient>
<linearGradient id="paint3_linear_7_299" x1="9.82717" y1="10.2516" x2="85.7082" y2="70.8841" gradientUnits="userSpaceOnUse">
<stop stop-color="#EF3CF3"/>
<stop offset="1" stop-color="#E0146A"/>
</linearGradient>
<linearGradient id="paint4_linear_7_299" x1="28.1817" y1="24.729" x2="61.1368" y2="84.2001" gradientUnits="userSpaceOnUse">
<stop stop-opacity="0"/>
<stop offset="1"/>
</linearGradient>
<linearGradient id="paint5_linear_7_299" x1="36.673" y1="51.9995" x2="-2.25122" y2="41.0411" gradientUnits="userSpaceOnUse">
<stop stop-color="white" stop-opacity="0"/>
<stop offset="1" stop-opacity="0.67"/>
</linearGradient>
<radialGradient id="paint6_radial_7_299" cx="0" cy="0" r="1" gradientUnits="userSpaceOnUse" gradientTransform="translate(34.1965 22.604) rotate(51.7196) scale(45.1171 73.8726)">
<stop offset="0.0699231" stop-color="white"/>
<stop offset="0.219507" stop-color="#979797" stop-opacity="0.72"/>
<stop offset="0.941645" stop-opacity="0.98"/>
</radialGradient>
<linearGradient id="paint7_linear_7_299" x1="34.5499" y1="24.729" x2="45.8892" y2="44.9065" gradientUnits="userSpaceOnUse">
<stop stop-color="white" stop-opacity="0"/>
<stop offset="1"/>
</linearGradient>
<linearGradient id="paint8_linear_7_299" x1="34.5499" y1="24.729" x2="45.8892" y2="44.9065" gradientUnits="userSpaceOnUse">
<stop stop-color="white" stop-opacity="0"/>
<stop offset="1"/>
</linearGradient>
</defs>
</svg>
