<svg width="62" height="61" viewBox="0 0 62 61" fill="none" xmlns="http://www.w3.org/2000/svg">
<path d="M48.9592 29.9998C48.9592 41.0454 40.0141 49.9997 28.9797 49.9997C17.9453 49.9997 9.00015 41.0454 9.00015 29.9998C9.00015 18.9542 17.9453 10 28.9797 10C40.0141 10 48.9592 18.9542 48.9592 29.9998Z" fill="url(#paint0_linear_7_613)"/>
<path d="M48.9592 29.9998C48.9592 41.0454 40.0141 49.9997 28.9797 49.9997C17.9453 49.9997 9.00015 41.0454 9.00015 29.9998C9.00015 18.9542 17.9453 10 28.9797 10C40.0141 10 48.9592 18.9542 48.9592 29.9998Z" fill="url(#paint1_linear_7_613)"/>
<path d="M48.9592 30.0001C48.9592 41.0457 40.014 50 28.9796 50C17.9453 50 9.00012 41.0457 9.00012 30.0001C14.1615 36.6665 19.1107 39.4999 30.1451 39.4999C41.1795 39.4999 37.4709 35.3331 48.9592 30.0001Z" fill="white" fill-opacity="0.1"/>
<path d="M38.6364 27.8331C38.6364 33.2639 34.2384 37.6664 28.8131 37.6664C23.3879 37.6664 18.9899 33.2639 18.9899 27.8331C18.9899 22.4024 23.3879 17.9999 28.8131 17.9999C34.2384 17.9999 38.6364 22.4024 38.6364 27.8331Z" fill="white"/>
<path d="M25.3301 26.9892H26.0234C26.201 26.9892 26.3461 26.9581 26.4588 26.8961C26.5744 26.8312 26.6603 26.7409 26.7167 26.6252C26.7731 26.5067 26.8013 26.3671 26.8013 26.2063C26.8013 26.0822 26.7745 25.9679 26.7209 25.8635C26.6702 25.7591 26.5913 25.6759 26.4842 25.6138C26.3771 25.549 26.2404 25.5165 26.0741 25.5165C25.9614 25.5165 25.8515 25.5405 25.7444 25.5885C25.6373 25.6336 25.5485 25.6985 25.4781 25.7831C25.4104 25.8677 25.3766 25.9707 25.3766 26.092H23.9477C23.9477 25.7422 24.0436 25.4432 24.2352 25.1949C24.4297 24.9438 24.6847 24.752 25.0004 24.6194C25.3188 24.484 25.6613 24.4163 26.0276 24.4163C26.4645 24.4163 26.8478 24.484 27.1775 24.6194C27.5072 24.752 27.7637 24.9495 27.9469 25.2118C28.1329 25.4714 28.2259 25.793 28.2259 26.1767C28.2259 26.3882 28.1766 26.5871 28.0779 26.7733C27.9793 26.9595 27.8412 27.1232 27.6637 27.2642C27.4861 27.4053 27.2776 27.5167 27.038 27.5985C26.8013 27.6775 26.542 27.717 26.2601 27.717H25.3301V26.9892ZM25.3301 28.0513V27.3404H26.2601C26.5673 27.3404 26.8478 27.3757 27.1014 27.4462C27.3551 27.5139 27.5735 27.6155 27.7567 27.7509C27.9398 27.8863 28.0808 28.0541 28.1794 28.2544C28.278 28.4519 28.3274 28.679 28.3274 28.9358C28.3274 29.2235 28.2696 29.4802 28.154 29.7059C28.0385 29.9316 27.8764 30.1221 27.6679 30.2772C27.4593 30.4324 27.2155 30.5509 26.9365 30.6327C26.6575 30.7117 26.3546 30.7512 26.0276 30.7512C25.7712 30.7512 25.5147 30.7173 25.2582 30.6496C25.0018 30.5791 24.7679 30.4719 24.5565 30.328C24.3451 30.1813 24.1746 29.9951 24.045 29.7694C23.9181 29.5409 23.8547 29.2687 23.8547 28.9527H25.2836C25.2836 29.0825 25.3188 29.2009 25.3893 29.3081C25.4626 29.4125 25.5598 29.4958 25.681 29.5578C25.8022 29.6199 25.9332 29.6509 26.0741 29.6509C26.2489 29.6509 26.3968 29.6185 26.518 29.5536C26.642 29.4859 26.7364 29.3956 26.8013 29.2828C26.8661 29.1699 26.8985 29.0444 26.8985 28.9061C26.8985 28.6974 26.8633 28.5309 26.7928 28.4068C26.7252 28.2827 26.6251 28.1924 26.4927 28.136C26.363 28.0795 26.2066 28.0513 26.0234 28.0513H25.3301Z" fill="#141418"/>
<path d="M33.3327 24.5051V25.2668L31.0329 30.6665H29.528L31.8319 25.6054H28.8938V24.5051H33.3327Z" fill="#141418"/>
<path d="M48.959 29.9998C48.959 41.0454 40.0139 49.9997 28.9795 49.9997C17.9451 49.9997 9 41.0454 9 29.9998C9 18.9542 17.9451 10 28.9795 10C40.0139 10 48.959 18.9542 48.959 29.9998Z" fill="url(#paint2_linear_7_613)"/>
<path d="M48.959 29.9998C48.959 41.0454 40.0139 49.9997 28.9795 49.9997C17.9451 49.9997 9 41.0454 9 29.9998C9 18.9542 17.9451 10 28.9795 10C40.0139 10 48.959 18.9542 48.959 29.9998Z" fill="url(#paint3_linear_7_613)"/>
<g filter="url(#filter0_f_7_613)">
<path d="M48.7927 28.8332C50.6244 39.9995 40.0139 50 28.9796 50C17.9452 50 11.9971 42.3788 11.9971 31.3332C11.9971 24.1663 18.2783 31.3332 29.3127 31.3332C39.1361 31.3332 44.4675 2.4644 48.7927 28.8332Z" fill="url(#paint4_linear_7_613)" fill-opacity="0.4"/>
<path d="M48.7927 28.8332C50.6244 39.9995 40.0139 50 28.9796 50C17.9452 50 11.9971 42.3788 11.9971 31.3332C11.9971 24.1663 18.2783 31.3332 29.3127 31.3332C39.1361 31.3332 44.4675 2.4644 48.7927 28.8332Z" fill="url(#paint5_linear_7_613)" fill-opacity="0.3"/>
</g>
<g filter="url(#filter1_df_7_613)">
<path d="M39.9684 28.8331C39.9684 34.2639 35.5704 38.6664 30.1452 38.6664C24.7199 38.6664 20.3219 34.2639 20.3219 28.8331C20.3219 23.4024 24.7199 18.9999 30.1452 18.9999C35.5704 18.9999 39.9684 23.4024 39.9684 28.8331Z" fill="black" fill-opacity="0.1" shape-rendering="crispEdges"/>
</g>
<g filter="url(#filter2_d_7_613)">
<path d="M38.6363 27.8331C38.6363 33.2639 34.2382 37.6664 28.813 37.6664C23.3878 37.6664 18.9897 33.2639 18.9897 27.8331C18.9897 22.4024 23.3878 17.9999 28.813 17.9999C34.2382 17.9999 38.6363 22.4024 38.6363 27.8331Z" fill="white"/>
<path d="M38.6363 27.8331C38.6363 33.2639 34.2382 37.6664 28.813 37.6664C23.3878 37.6664 18.9897 33.2639 18.9897 27.8331C18.9897 22.4024 23.3878 17.9999 28.813 17.9999C34.2382 17.9999 38.6363 22.4024 38.6363 27.8331Z" fill="url(#paint6_radial_7_613)" fill-opacity="0.4"/>
</g>
<path d="M27.7334 27.9201L26.6005 27.6535L26.9725 24.5051H30.57V25.6138H28.135L27.9955 26.8368C28.0632 26.7973 28.1773 26.7508 28.338 26.6972C28.5014 26.6407 28.6818 26.6125 28.8791 26.6125C29.1834 26.6125 29.4526 26.6591 29.6865 26.7522C29.9232 26.8425 30.1233 26.9765 30.2868 27.1542C30.4503 27.3291 30.5729 27.5449 30.6546 27.8016C30.7391 28.0584 30.7814 28.3518 30.7814 28.6819C30.7814 28.947 30.7377 29.2038 30.6504 29.452C30.5658 29.6975 30.4348 29.9189 30.2572 30.1164C30.0825 30.3111 29.8612 30.4662 29.5935 30.5819C29.3258 30.6947 29.0087 30.7512 28.6423 30.7512C28.369 30.7512 28.1026 30.7089 27.8433 30.6242C27.5841 30.5396 27.3501 30.4183 27.1416 30.2603C26.9359 30.0995 26.7724 29.9062 26.6512 29.6805C26.5328 29.452 26.4751 29.1967 26.4779 28.9146H27.911C27.9194 29.0641 27.9547 29.1939 28.0167 29.3039C28.0787 29.4139 28.1618 29.5 28.2661 29.5621C28.3732 29.6213 28.4958 29.6509 28.6339 29.6509C28.7748 29.6509 28.8917 29.6227 28.9848 29.5663C29.0778 29.5099 29.151 29.4323 29.2046 29.3335C29.2581 29.2348 29.2962 29.122 29.3187 28.995C29.3413 28.8652 29.3525 28.7284 29.3525 28.5845C29.3525 28.4322 29.3356 28.2954 29.3018 28.174C29.2708 28.0527 29.2201 27.9498 29.1496 27.8651C29.0792 27.7777 28.9876 27.7114 28.8748 27.6662C28.7649 27.6211 28.6325 27.5985 28.4775 27.5985C28.2717 27.5985 28.1097 27.6338 27.9913 27.7043C27.8729 27.7748 27.787 27.8468 27.7334 27.9201Z" fill="#141418"/>
<path d="M27.7334 27.9201L26.6005 27.6535L26.9725 24.5051H30.57V25.6138H28.135L27.9955 26.8368C28.0632 26.7973 28.1773 26.7508 28.338 26.6972C28.5014 26.6407 28.6818 26.6125 28.8791 26.6125C29.1834 26.6125 29.4526 26.6591 29.6865 26.7522C29.9232 26.8425 30.1233 26.9765 30.2868 27.1542C30.4503 27.3291 30.5729 27.5449 30.6546 27.8016C30.7391 28.0584 30.7814 28.3518 30.7814 28.6819C30.7814 28.947 30.7377 29.2038 30.6504 29.452C30.5658 29.6975 30.4348 29.9189 30.2572 30.1164C30.0825 30.3111 29.8612 30.4662 29.5935 30.5819C29.3258 30.6947 29.0087 30.7512 28.6423 30.7512C28.369 30.7512 28.1026 30.7089 27.8433 30.6242C27.5841 30.5396 27.3501 30.4183 27.1416 30.2603C26.9359 30.0995 26.7724 29.9062 26.6512 29.6805C26.5328 29.452 26.4751 29.1967 26.4779 28.9146H27.911C27.9194 29.0641 27.9547 29.1939 28.0167 29.3039C28.0787 29.4139 28.1618 29.5 28.2661 29.5621C28.3732 29.6213 28.4958 29.6509 28.6339 29.6509C28.7748 29.6509 28.8917 29.6227 28.9848 29.5663C29.0778 29.5099 29.151 29.4323 29.2046 29.3335C29.2581 29.2348 29.2962 29.122 29.3187 28.995C29.3413 28.8652 29.3525 28.7284 29.3525 28.5845C29.3525 28.4322 29.3356 28.2954 29.3018 28.174C29.2708 28.0527 29.2201 27.9498 29.1496 27.8651C29.0792 27.7777 28.9876 27.7114 28.8748 27.6662C28.7649 27.6211 28.6325 27.5985 28.4775 27.5985C28.2717 27.5985 28.1097 27.6338 27.9913 27.7043C27.8729 27.7748 27.787 27.8468 27.7334 27.9201Z" fill="url(#paint7_linear_7_613)"/>
<g filter="url(#filter3_f_7_613)">
<path d="M24.7068 14.6324C25.1206 15.3498 23.9712 16.7895 22.1397 17.848C20.3081 18.9066 18.4879 19.1831 18.0741 18.4657C17.6603 17.7482 18.8096 16.3085 20.6412 15.25C22.4728 14.1914 24.293 13.9149 24.7068 14.6324Z" fill="white" fill-opacity="0.8"/>
</g>
<g filter="url(#filter4_f_7_613)">
<path d="M41.4308 42.2616C41.7266 42.7744 41.3116 43.5685 40.5039 44.0353C39.6963 44.5021 38.8018 44.4648 38.506 43.952C38.2102 43.4391 38.6252 42.645 39.4329 42.1783C40.2405 41.7115 41.1351 41.7488 41.4308 42.2616Z" fill="white" fill-opacity="0.3"/>
</g>
<g filter="url(#filter5_f_7_613)">
<path d="M45.5913 37.0083C46.0508 37.3812 45.9471 38.2714 45.3598 38.9966C44.7724 39.7217 43.9238 40.0073 43.4643 39.6343C43.0048 39.2614 43.1085 38.3712 43.6958 37.6461C44.2832 36.9209 45.1318 36.6354 45.5913 37.0083Z" fill="white" fill-opacity="0.3"/>
</g>
<defs>
<filter id="filter0_f_7_613" x="3.99707" y="9.72852" width="53.003" height="48.2715" filterUnits="userSpaceOnUse" color-interpolation-filters="sRGB">
<feFlood flood-opacity="0" result="BackgroundImageFix"/>
<feBlend mode="normal" in="SourceGraphic" in2="BackgroundImageFix" result="shape"/>
<feGaussianBlur stdDeviation="4" result="effect1_foregroundBlur_7_613"/>
</filter>
<filter id="filter1_df_7_613" x="2.3219" y="0.999878" width="59.6465" height="59.6665" filterUnits="userSpaceOnUse" color-interpolation-filters="sRGB">
<feFlood flood-opacity="0" result="BackgroundImageFix"/>
<feColorMatrix in="SourceAlpha" type="matrix" values="0 0 0 0 0 0 0 0 0 0 0 0 0 0 0 0 0 0 127 0" result="hardAlpha"/>
<feOffset dx="2" dy="2"/>
<feGaussianBlur stdDeviation="10"/>
<feComposite in2="hardAlpha" operator="out"/>
<feColorMatrix type="matrix" values="0 0 0 0 0 0 0 0 0 0 0 0 0 0 0 0 0 0 0.15 0"/>
<feBlend mode="normal" in2="BackgroundImageFix" result="effect1_dropShadow_7_613"/>
<feBlend mode="normal" in="SourceGraphic" in2="effect1_dropShadow_7_613" result="shape"/>
<feGaussianBlur stdDeviation="5" result="effect2_foregroundBlur_7_613"/>
</filter>
<filter id="filter2_d_7_613" x="0.989746" y="-0.00012207" width="59.6465" height="59.6665" filterUnits="userSpaceOnUse" color-interpolation-filters="sRGB">
<feFlood flood-opacity="0" result="BackgroundImageFix"/>
<feColorMatrix in="SourceAlpha" type="matrix" values="0 0 0 0 0 0 0 0 0 0 0 0 0 0 0 0 0 0 127 0" result="hardAlpha"/>
<feOffset dx="2" dy="2"/>
<feGaussianBlur stdDeviation="10"/>
<feComposite in2="hardAlpha" operator="out"/>
<feColorMatrix type="matrix" values="0 0 0 0 0 0 0 0 0 0 0 0 0 0 0 0 0 0 0.15 0"/>
<feBlend mode="normal" in2="BackgroundImageFix" result="effect1_dropShadow_7_613"/>
<feBlend mode="normal" in="SourceGraphic" in2="effect1_dropShadow_7_613" result="shape"/>
</filter>
<filter id="filter3_f_7_613" x="13.9897" y="10.2334" width="14.8014" height="12.6312" filterUnits="userSpaceOnUse" color-interpolation-filters="sRGB">
<feFlood flood-opacity="0" result="BackgroundImageFix"/>
<feBlend mode="normal" in="SourceGraphic" in2="BackgroundImageFix" result="shape"/>
<feGaussianBlur stdDeviation="2" result="effect1_foregroundBlur_7_613"/>
</filter>
<filter id="filter4_f_7_613" x="34.4106" y="37.8512" width="11.1156" height="10.5111" filterUnits="userSpaceOnUse" color-interpolation-filters="sRGB">
<feFlood flood-opacity="0" result="BackgroundImageFix"/>
<feBlend mode="normal" in="SourceGraphic" in2="BackgroundImageFix" result="shape"/>
<feGaussianBlur stdDeviation="2" result="effect1_foregroundBlur_7_613"/>
</filter>
<filter id="filter5_f_7_613" x="39.1775" y="32.8445" width="10.7006" height="10.9536" filterUnits="userSpaceOnUse" color-interpolation-filters="sRGB">
<feFlood flood-opacity="0" result="BackgroundImageFix"/>
<feBlend mode="normal" in="SourceGraphic" in2="BackgroundImageFix" result="shape"/>
<feGaussianBlur stdDeviation="2" result="effect1_foregroundBlur_7_613"/>
</filter>
<linearGradient id="paint0_linear_7_613" x1="12.6835" y1="14.3537" x2="48.3923" y2="42.8866" gradientUnits="userSpaceOnUse">
<stop stop-color="#C4C4C4"/>
<stop offset="1" stop-color="#C4C4C4" stop-opacity="0"/>
</linearGradient>
<linearGradient id="paint1_linear_7_613" x1="12.6835" y1="14.3537" x2="48.3923" y2="42.8866" gradientUnits="userSpaceOnUse">
<stop stop-color="#F3EC3C"/>
<stop offset="1" stop-color="#F7045C"/>
</linearGradient>
<linearGradient id="paint2_linear_7_613" x1="12.6834" y1="14.3537" x2="48.3921" y2="42.8866" gradientUnits="userSpaceOnUse">
<stop stop-color="#C4C4C4"/>
<stop offset="1" stop-color="#C4C4C4" stop-opacity="0"/>
</linearGradient>
<linearGradient id="paint3_linear_7_613" x1="12.6834" y1="14.3537" x2="48.3921" y2="42.8866" gradientUnits="userSpaceOnUse">
<stop stop-color="#F3AA3C"/>
<stop offset="1" stop-color="#E03814"/>
</linearGradient>
<linearGradient id="paint4_linear_7_613" x1="21.3208" y1="21.1666" x2="36.8291" y2="49.153" gradientUnits="userSpaceOnUse">
<stop stop-opacity="0"/>
<stop offset="1"/>
</linearGradient>
<linearGradient id="paint5_linear_7_613" x1="25.3168" y1="33.9998" x2="6.99945" y2="28.8429" gradientUnits="userSpaceOnUse">
<stop stop-color="white" stop-opacity="0"/>
<stop offset="1" stop-opacity="0.67"/>
</linearGradient>
<radialGradient id="paint6_radial_7_613" cx="0" cy="0" r="1" gradientUnits="userSpaceOnUse" gradientTransform="translate(24.1513 20.1665) rotate(51.7196) scale(21.2316 34.7636)">
<stop offset="0.0699231" stop-color="white"/>
<stop offset="0.219507" stop-color="#979797" stop-opacity="0.72"/>
<stop offset="0.941645" stop-opacity="0.98"/>
</radialGradient>
<linearGradient id="paint7_linear_7_613" x1="26.3263" y1="21.1666" x2="32.5508" y2="26.8833" gradientUnits="userSpaceOnUse">
<stop stop-color="white" stop-opacity="0"/>
<stop offset="1"/>
</linearGradient>
</defs>
</svg>
