<svg width="81" height="82" viewBox="0 0 81 82" fill="none" xmlns="http://www.w3.org/2000/svg">
<path d="M72.9286 38.9997C72.9286 58.3295 57.2746 73.9994 37.9644 73.9994C18.6543 73.9994 3.00027 58.3295 3.00027 38.9997C3.00027 19.6699 18.6543 4 37.9644 4C57.2746 4 72.9286 19.6699 72.9286 38.9997Z" fill="url(#paint0_linear_7_585)"/>
<path d="M72.9286 38.9997C72.9286 58.3295 57.2746 73.9994 37.9644 73.9994C18.6543 73.9994 3.00027 58.3295 3.00027 38.9997C3.00027 19.6699 18.6543 4 37.9644 4C57.2746 4 72.9286 19.6699 72.9286 38.9997Z" fill="url(#paint1_linear_7_585)"/>
<path d="M72.9286 39.0002C72.9286 58.3301 57.2746 74 37.9644 74C18.6542 74 3.00024 58.3301 3.00024 39.0002C12.0327 50.6665 20.6938 55.6248 40.004 55.6248C59.3142 55.6248 52.8242 48.3329 72.9286 39.0002Z" fill="white" fill-opacity="0.1"/>
<path d="M54.8638 35.2081C54.8638 44.7119 47.1673 52.4163 37.6731 52.4163C28.179 52.4163 20.4824 44.7119 20.4824 35.2081C20.4824 25.7042 28.179 17.9999 37.6731 17.9999C47.1673 17.9999 54.8638 25.7042 54.8638 35.2081Z" fill="white"/>
<path d="M31.5776 33.731H32.7909C33.1016 33.731 33.3556 33.6767 33.5529 33.568C33.7551 33.4545 33.9055 33.2965 34.0042 33.0941C34.1028 32.8867 34.1521 32.6423 34.1521 32.3609C34.1521 32.1437 34.1053 31.9438 34.0116 31.7611C33.9228 31.5784 33.7847 31.4328 33.5973 31.3242C33.4099 31.2106 33.1707 31.1538 32.8797 31.1538C32.6824 31.1538 32.4901 31.1958 32.3026 31.2797C32.1152 31.3587 31.9599 31.4723 31.8366 31.6204C31.7182 31.7685 31.659 31.9487 31.659 32.161H29.1585C29.1585 31.5488 29.3262 31.0255 29.6615 30.591C30.0019 30.1516 30.4482 29.8159 31.0006 29.5839C31.5579 29.3469 32.1571 29.2284 32.7983 29.2284C33.5628 29.2284 34.2335 29.3469 34.8106 29.5839C35.3876 29.8159 35.8364 30.1615 36.157 30.6206C36.4825 31.0748 36.6453 31.6377 36.6453 32.3091C36.6453 32.6794 36.559 33.0274 36.3863 33.3533C36.2137 33.6791 35.9721 33.9655 35.6613 34.2123C35.3506 34.4592 34.9857 34.6542 34.5664 34.7974C34.1521 34.9356 33.6984 35.0047 33.2052 35.0047H31.5776V33.731ZM31.5776 35.5898V34.3456H33.2052C33.7428 34.3456 34.2335 34.4073 34.6774 34.5308C35.1213 34.6492 35.5035 34.827 35.8241 35.064C36.1447 35.3009 36.3913 35.5947 36.5639 35.9452C36.7365 36.2908 36.8228 36.6882 36.8228 37.1375C36.8228 37.6411 36.7217 38.0904 36.5195 38.4853C36.3173 38.8803 36.0337 39.2135 35.6687 39.4851C35.3038 39.7566 34.8772 39.964 34.3889 40.1071C33.9006 40.2454 33.3704 40.3145 32.7983 40.3145C32.3495 40.3145 31.9007 40.2552 31.4519 40.1368C31.0031 40.0133 30.5937 39.8257 30.2238 39.5739C29.8539 39.3172 29.5555 38.9914 29.3286 38.5964C29.1067 38.1965 28.9957 37.7201 28.9957 37.1671H31.4963C31.4963 37.3942 31.5579 37.6016 31.6812 37.7892C31.8094 37.9719 31.9796 38.1175 32.1917 38.2261C32.4037 38.3347 32.6331 38.389 32.8797 38.389C33.1855 38.389 33.4444 38.3323 33.6565 38.2187C33.8735 38.1002 34.0387 37.9422 34.1521 37.7448C34.2656 37.5473 34.3223 37.3276 34.3223 37.0857C34.3223 36.7203 34.2606 36.429 34.1373 36.2118C34.019 35.9946 33.8439 35.8366 33.6121 35.7379C33.3852 35.6391 33.1115 35.5898 32.7909 35.5898H31.5776Z" fill="#141418"/>
<path d="M45.5821 29.3839V30.7169L41.5576 40.1664H38.9239L42.9558 31.3093H37.8142V29.3839H45.5821Z" fill="#141418"/>
<path d="M72.9283 38.9997C72.9283 58.3295 57.2743 73.9994 37.9642 73.9994C18.654 73.9994 3 58.3295 3 38.9997C3 19.6699 18.654 4 37.9642 4C57.2743 4 72.9283 19.6699 72.9283 38.9997Z" fill="url(#paint2_linear_7_585)"/>
<path d="M72.9283 38.9997C72.9283 58.3295 57.2743 73.9994 37.9642 73.9994C18.654 73.9994 3 58.3295 3 38.9997C3 19.6699 18.654 4 37.9642 4C57.2743 4 72.9283 19.6699 72.9283 38.9997Z" fill="url(#paint3_linear_7_585)"/>
<g filter="url(#filter0_f_7_585)">
<path d="M72.6372 36.9581C75.8425 56.4991 57.2743 73.9999 37.9641 73.9999C18.6539 73.9999 8.24475 60.6628 8.24475 41.333C8.24479 28.7909 19.237 41.333 38.5471 41.333C55.7381 41.333 65.0679 -9.1873 72.6372 36.9581Z" fill="url(#paint4_linear_7_585)" fill-opacity="0.4"/>
<path d="M72.6372 36.9581C75.8425 56.4991 57.2743 73.9999 37.9641 73.9999C18.6539 73.9999 8.24475 60.6628 8.24475 41.333C8.24479 28.7909 19.237 41.333 38.5471 41.333C55.7381 41.333 65.0679 -9.1873 72.6372 36.9581Z" fill="url(#paint5_linear_7_585)" fill-opacity="0.3"/>
</g>
<g filter="url(#filter1_df_7_585)">
<path d="M57.1948 36.9581C57.1948 46.4619 49.4982 54.1663 40.0041 54.1663C30.5099 54.1663 22.8134 46.4619 22.8134 36.9581C22.8134 27.4542 30.5099 19.7499 40.0041 19.7499C49.4982 19.7499 57.1948 27.4542 57.1948 36.9581Z" fill="black" fill-opacity="0.1" shape-rendering="crispEdges"/>
</g>
<g filter="url(#filter2_d_7_585)">
<path d="M54.8635 35.2081C54.8635 44.7119 47.1669 52.4163 37.6728 52.4163C28.1786 52.4163 20.4821 44.7119 20.4821 35.2081C20.4821 25.7042 28.1786 17.9999 37.6728 17.9999C47.1669 17.9999 54.8635 25.7042 54.8635 35.2081Z" fill="white"/>
<path d="M54.8635 35.2081C54.8635 44.7119 47.1669 52.4163 37.6728 52.4163C28.1786 52.4163 20.4821 44.7119 20.4821 35.2081C20.4821 25.7042 28.1786 17.9999 37.6728 17.9999C47.1669 17.9999 54.8635 25.7042 54.8635 35.2081Z" fill="url(#paint6_radial_7_585)" fill-opacity="0.4"/>
</g>
<path d="M35.0687 29.3839V40.1664H32.5755V32.198L30.1194 32.9164V31.0205L34.8393 29.3839H35.0687Z" fill="#141418"/>
<path d="M35.0687 29.3839V40.1664H32.5755V32.198L30.1194 32.9164V31.0205L34.8393 29.3839H35.0687Z" fill="url(#paint7_linear_7_585)"/>
<path d="M40.4692 35.3602L38.4865 34.8936L39.1376 29.3839H45.4333V31.3242H41.172L40.9279 33.4644C41.0463 33.3952 41.246 33.3138 41.5271 33.22C41.8132 33.1212 42.1288 33.0719 42.4741 33.0719C43.0067 33.0719 43.4777 33.1533 43.8871 33.3163C44.3014 33.4742 44.6516 33.7087 44.9376 34.0198C45.2237 34.3259 45.4382 34.7036 45.5812 35.1528C45.7292 35.6021 45.8032 36.1155 45.8032 36.6932C45.8032 37.1573 45.7267 37.6065 45.5738 38.041C45.4259 38.4705 45.1965 38.8581 44.8858 39.2037C44.58 39.5443 44.1929 39.8158 43.7243 40.0183C43.2558 40.2157 42.7009 40.3145 42.0598 40.3145C41.5814 40.3145 41.1153 40.2404 40.6616 40.0923C40.2078 39.9442 39.7985 39.7319 39.4335 39.4554C39.0735 39.174 38.7874 38.8358 38.5753 38.4409C38.3682 38.041 38.2671 37.5942 38.272 37.1005H40.7799C40.7947 37.3621 40.8564 37.5892 40.9649 37.7818C41.0734 37.9743 41.2189 38.1249 41.4014 38.2335C41.5888 38.3372 41.8033 38.389 42.045 38.389C42.2916 38.389 42.4963 38.3397 42.659 38.2409C42.8218 38.1422 42.95 38.0064 43.0437 37.8336C43.1374 37.6608 43.204 37.4634 43.2435 37.2412C43.2829 37.0141 43.3026 36.7746 43.3026 36.5229C43.3026 36.2563 43.2731 36.0168 43.2139 35.8045C43.1596 35.5922 43.0708 35.412 42.9475 35.2639C42.8242 35.1109 42.664 34.9948 42.4667 34.9158C42.2743 34.8369 42.0425 34.7974 41.7713 34.7974C41.4112 34.7974 41.1276 34.8591 40.9205 34.9825C40.7133 35.1059 40.5629 35.2318 40.4692 35.3602Z" fill="#141418"/>
<path d="M40.4692 35.3602L38.4865 34.8936L39.1376 29.3839H45.4333V31.3242H41.172L40.9279 33.4644C41.0463 33.3952 41.246 33.3138 41.5271 33.22C41.8132 33.1212 42.1288 33.0719 42.4741 33.0719C43.0067 33.0719 43.4777 33.1533 43.8871 33.3163C44.3014 33.4742 44.6516 33.7087 44.9376 34.0198C45.2237 34.3259 45.4382 34.7036 45.5812 35.1528C45.7292 35.6021 45.8032 36.1155 45.8032 36.6932C45.8032 37.1573 45.7267 37.6065 45.5738 38.041C45.4259 38.4705 45.1965 38.8581 44.8858 39.2037C44.58 39.5443 44.1929 39.8158 43.7243 40.0183C43.2558 40.2157 42.7009 40.3145 42.0598 40.3145C41.5814 40.3145 41.1153 40.2404 40.6616 40.0923C40.2078 39.9442 39.7985 39.7319 39.4335 39.4554C39.0735 39.174 38.7874 38.8358 38.5753 38.4409C38.3682 38.041 38.2671 37.5942 38.272 37.1005H40.7799C40.7947 37.3621 40.8564 37.5892 40.9649 37.7818C41.0734 37.9743 41.2189 38.1249 41.4014 38.2335C41.5888 38.3372 41.8033 38.389 42.045 38.389C42.2916 38.389 42.4963 38.3397 42.659 38.2409C42.8218 38.1422 42.95 38.0064 43.0437 37.8336C43.1374 37.6608 43.204 37.4634 43.2435 37.2412C43.2829 37.0141 43.3026 36.7746 43.3026 36.5229C43.3026 36.2563 43.2731 36.0168 43.2139 35.8045C43.1596 35.5922 43.0708 35.412 42.9475 35.2639C42.8242 35.1109 42.664 34.9948 42.4667 34.9158C42.2743 34.8369 42.0425 34.7974 41.7713 34.7974C41.4112 34.7974 41.1276 34.8591 40.9205 34.9825C40.7133 35.1059 40.5629 35.2318 40.4692 35.3602Z" fill="url(#paint8_linear_7_585)"/>
<g filter="url(#filter3_f_7_585)">
<path d="M30.4868 12.1065C31.2109 13.362 29.1996 15.8815 25.9943 17.734C22.789 19.5864 19.6036 20.0703 18.8795 18.8148C18.1554 17.5593 20.1667 15.0398 23.372 13.1874C26.5773 11.3349 29.7627 10.851 30.4868 12.1065Z" fill="white" fill-opacity="0.8"/>
</g>
<g filter="url(#filter4_f_7_585)">
<path d="M59.754 60.4578C60.2716 61.3552 59.5454 62.7449 58.132 63.5618C56.7185 64.3786 55.1531 64.3133 54.6356 63.4159C54.118 62.5185 54.8442 61.1288 56.2576 60.3119C57.671 59.4951 59.2364 59.5604 59.754 60.4578Z" fill="white" fill-opacity="0.3"/>
</g>
<g filter="url(#filter5_f_7_585)">
<path d="M67.0347 51.2645C67.8388 51.9172 67.6575 53.475 66.6296 54.744C65.6017 56.013 64.1166 56.5127 63.3125 55.8601C62.5084 55.2075 62.6898 53.6497 63.7177 52.3807C64.7455 51.1116 66.2306 50.6119 67.0347 51.2645Z" fill="white" fill-opacity="0.3"/>
</g>
<defs>
<filter id="filter0_f_7_585" x="0.244751" y="9.5249" width="80.7552" height="72.4751" filterUnits="userSpaceOnUse" color-interpolation-filters="sRGB">
<feFlood flood-opacity="0" result="BackgroundImageFix"/>
<feBlend mode="normal" in="SourceGraphic" in2="BackgroundImageFix" result="shape"/>
<feGaussianBlur stdDeviation="4" result="effect1_foregroundBlur_7_585"/>
</filter>
<filter id="filter1_df_7_585" x="4.81335" y="1.74988" width="74.3814" height="74.4164" filterUnits="userSpaceOnUse" color-interpolation-filters="sRGB">
<feFlood flood-opacity="0" result="BackgroundImageFix"/>
<feColorMatrix in="SourceAlpha" type="matrix" values="0 0 0 0 0 0 0 0 0 0 0 0 0 0 0 0 0 0 127 0" result="hardAlpha"/>
<feOffset dx="2" dy="2"/>
<feGaussianBlur stdDeviation="10"/>
<feComposite in2="hardAlpha" operator="out"/>
<feColorMatrix type="matrix" values="0 0 0 0 0 0 0 0 0 0 0 0 0 0 0 0 0 0 0.15 0"/>
<feBlend mode="normal" in2="BackgroundImageFix" result="effect1_dropShadow_7_585"/>
<feBlend mode="normal" in="SourceGraphic" in2="effect1_dropShadow_7_585" result="shape"/>
<feGaussianBlur stdDeviation="5" result="effect2_foregroundBlur_7_585"/>
</filter>
<filter id="filter2_d_7_585" x="2.48206" y="-0.00012207" width="74.3814" height="74.4164" filterUnits="userSpaceOnUse" color-interpolation-filters="sRGB">
<feFlood flood-opacity="0" result="BackgroundImageFix"/>
<feColorMatrix in="SourceAlpha" type="matrix" values="0 0 0 0 0 0 0 0 0 0 0 0 0 0 0 0 0 0 127 0" result="hardAlpha"/>
<feOffset dx="2" dy="2"/>
<feGaussianBlur stdDeviation="10"/>
<feComposite in2="hardAlpha" operator="out"/>
<feColorMatrix type="matrix" values="0 0 0 0 0 0 0 0 0 0 0 0 0 0 0 0 0 0 0.15 0"/>
<feBlend mode="normal" in2="BackgroundImageFix" result="effect1_dropShadow_7_585"/>
<feBlend mode="normal" in="SourceGraphic" in2="effect1_dropShadow_7_585" result="shape"/>
</filter>
<filter id="filter3_f_7_585" x="14.732" y="7.40833" width="19.9024" height="16.1046" filterUnits="userSpaceOnUse" color-interpolation-filters="sRGB">
<feFlood flood-opacity="0" result="BackgroundImageFix"/>
<feBlend mode="normal" in="SourceGraphic" in2="BackgroundImageFix" result="shape"/>
<feGaussianBlur stdDeviation="2" result="effect1_foregroundBlur_7_585"/>
</filter>
<filter id="filter4_f_7_585" x="50.4686" y="55.7396" width="13.4524" height="12.3945" filterUnits="userSpaceOnUse" color-interpolation-filters="sRGB">
<feFlood flood-opacity="0" result="BackgroundImageFix"/>
<feBlend mode="normal" in="SourceGraphic" in2="BackgroundImageFix" result="shape"/>
<feGaussianBlur stdDeviation="2" result="effect1_foregroundBlur_7_585"/>
</filter>
<filter id="filter5_f_7_585" x="58.8106" y="46.978" width="12.7261" height="13.1687" filterUnits="userSpaceOnUse" color-interpolation-filters="sRGB">
<feFlood flood-opacity="0" result="BackgroundImageFix"/>
<feBlend mode="normal" in="SourceGraphic" in2="BackgroundImageFix" result="shape"/>
<feGaussianBlur stdDeviation="2" result="effect1_foregroundBlur_7_585"/>
</filter>
<linearGradient id="paint0_linear_7_585" x1="9.44618" y1="11.619" x2="71.9365" y2="61.5516" gradientUnits="userSpaceOnUse">
<stop stop-color="#C4C4C4"/>
<stop offset="1" stop-color="#C4C4C4" stop-opacity="0"/>
</linearGradient>
<linearGradient id="paint1_linear_7_585" x1="9.44618" y1="11.619" x2="71.9365" y2="61.5516" gradientUnits="userSpaceOnUse">
<stop stop-color="#F3EC3C"/>
<stop offset="1" stop-color="#F7045C"/>
</linearGradient>
<linearGradient id="paint2_linear_7_585" x1="9.44591" y1="11.619" x2="71.9362" y2="61.5516" gradientUnits="userSpaceOnUse">
<stop stop-color="#C4C4C4"/>
<stop offset="1" stop-color="#C4C4C4" stop-opacity="0"/>
</linearGradient>
<linearGradient id="paint3_linear_7_585" x1="9.44591" y1="11.619" x2="71.9362" y2="61.5516" gradientUnits="userSpaceOnUse">
<stop stop-color="#3C85F3"/>
<stop offset="1" stop-color="#1428E0"/>
</linearGradient>
<linearGradient id="paint4_linear_7_585" x1="24.5613" y1="23.5415" x2="51.7008" y2="72.5177" gradientUnits="userSpaceOnUse">
<stop stop-opacity="0"/>
<stop offset="1"/>
</linearGradient>
<linearGradient id="paint5_linear_7_585" x1="31.5542" y1="45.9996" x2="-0.501077" y2="36.975" gradientUnits="userSpaceOnUse">
<stop stop-color="white" stop-opacity="0"/>
<stop offset="1" stop-opacity="0.67"/>
</linearGradient>
<radialGradient id="paint6_radial_7_585" cx="0" cy="0" r="1" gradientUnits="userSpaceOnUse" gradientTransform="translate(29.5147 21.7915) rotate(51.7196) scale(37.1552 60.8363)">
<stop offset="0.0699231" stop-color="white"/>
<stop offset="0.219507" stop-color="#979797" stop-opacity="0.72"/>
<stop offset="0.941645" stop-opacity="0.98"/>
</radialGradient>
<linearGradient id="paint7_linear_7_585" x1="29.8058" y1="23.5415" x2="39.144" y2="40.1583" gradientUnits="userSpaceOnUse">
<stop stop-color="white" stop-opacity="0"/>
<stop offset="1"/>
</linearGradient>
<linearGradient id="paint8_linear_7_585" x1="29.8058" y1="23.5415" x2="39.144" y2="40.1583" gradientUnits="userSpaceOnUse">
<stop stop-color="white" stop-opacity="0"/>
<stop offset="1"/>
</linearGradient>
</defs>
</svg>
