<svg width="42" height="42" viewBox="0 0 42 42" fill="none" xmlns="http://www.w3.org/2000/svg">
<circle cx="21" cy="21" r="21" fill="#646671" fill-opacity="0.2"/>
<path fill-rule="evenodd" clip-rule="evenodd" d="M21.0002 13.5002C16.858 13.5002 13.5002 16.858 13.5002 21.0002C13.5002 25.1423 16.858 28.5002 21.0002 28.5002C25.1423 28.5002 28.5002 25.1423 28.5002 21.0002C28.5002 16.858 25.1423 13.5002 21.0002 13.5002ZM11.8335 21.0002C11.8335 15.9376 15.9376 11.8335 21.0002 11.8335C26.0628 11.8335 30.1668 15.9376 30.1668 21.0002C30.1668 26.0628 26.0628 30.1668 21.0002 30.1668C15.9376 30.1668 11.8335 26.0628 11.8335 21.0002Z" fill="white"/>
<path fill-rule="evenodd" clip-rule="evenodd" d="M20.9998 15.1665C21.4601 15.1665 21.8332 15.5396 21.8332 15.9998V20.4848L24.7058 21.9211C25.1175 22.127 25.2844 22.6275 25.0785 23.0392C24.8727 23.4508 24.3721 23.6177 23.9605 23.4119L20.6272 21.7452C20.3448 21.604 20.1665 21.3155 20.1665 20.9998V15.9998C20.1665 15.5396 20.5396 15.1665 20.9998 15.1665Z" fill="white"/>
</svg>
