<svg width="18" height="18" viewBox="0 0 18 18" fill="none" xmlns="http://www.w3.org/2000/svg">
<path fill-rule="evenodd" clip-rule="evenodd" d="M9 17.25C13.5563 17.25 17.25 13.5563 17.25 9C17.25 4.44365 13.5563 0.75 9 0.75C4.44365 0.75 0.75 4.44365 0.75 9C0.75 13.5563 4.44365 17.25 9 17.25ZM9 18C13.9706 18 18 13.9706 18 9C18 4.02944 13.9706 0 9 0C4.02944 0 0 4.02944 0 9C0 13.9706 4.02944 18 9 18Z" fill="#141517"/>
<path fill-rule="evenodd" clip-rule="evenodd" d="M8.99902 9.75C10.2417 9.75 11.249 8.74264 11.249 7.5C11.249 6.25736 10.2417 5.25 8.99902 5.25C7.75638 5.25 6.74902 6.25736 6.74902 7.5C6.74902 8.74264 7.75638 9.75 8.99902 9.75ZM8.99902 10.5C10.6559 10.5 11.999 9.15685 11.999 7.5C11.999 5.84315 10.6559 4.5 8.99902 4.5C7.34217 4.5 5.99902 5.84315 5.99902 7.5C5.99902 9.15685 7.34217 10.5 8.99902 10.5Z" fill="#141517"/>
<path fill-rule="evenodd" clip-rule="evenodd" d="M6.02701 11.6907C5.27971 12.1889 4.87598 12.836 4.87598 13.5H4.12598C4.12598 12.5072 4.7296 11.6542 5.61098 11.0667C6.49499 10.4773 7.69463 10.125 9.00098 10.125C10.3073 10.125 11.507 10.4773 12.391 11.0667C13.2724 11.6543 13.876 12.5072 13.876 13.5H13.126C13.126 12.836 12.7222 12.1889 11.9749 11.6907C11.2303 11.1942 10.1799 10.875 9.00098 10.875C7.82204 10.875 6.77168 11.1942 6.02701 11.6907Z" fill="#141517"/>
</svg>
