<svg width="18" height="18" viewBox="0 0 18 18" fill="none" xmlns="http://www.w3.org/2000/svg">
<path fill-rule="evenodd" clip-rule="evenodd" d="M9 17.25C13.5563 17.25 17.25 13.5563 17.25 9C17.25 4.44365 13.5563 0.75 9 0.75C4.44365 0.75 0.75 4.44365 0.75 9C0.75 13.5563 4.44365 17.25 9 17.25ZM9 18C13.9706 18 18 13.9706 18 9C18 4.02944 13.9706 0 9 0C4.02944 0 0 4.02944 0 9C0 13.9706 4.02944 18 9 18Z" fill="#FCFCFC"/>
<path fill-rule="evenodd" clip-rule="evenodd" d="M8.99939 9.75C10.242 9.75 11.2494 8.74264 11.2494 7.5C11.2494 6.25736 10.242 5.25 8.99939 5.25C7.75675 5.25 6.74939 6.25736 6.74939 7.5C6.74939 8.74264 7.75675 9.75 8.99939 9.75ZM8.99939 10.5C10.6562 10.5 11.9994 9.15685 11.9994 7.5C11.9994 5.84315 10.6562 4.5 8.99939 4.5C7.34254 4.5 5.99939 5.84315 5.99939 7.5C5.99939 9.15685 7.34254 10.5 8.99939 10.5Z" fill="#FCFCFC"/>
<path fill-rule="evenodd" clip-rule="evenodd" d="M6.02664 11.6907C5.27935 12.1889 4.87561 12.836 4.87561 13.5H4.12561C4.12561 12.5072 4.72923 11.6542 5.61062 11.0667C6.49462 10.4773 7.69426 10.125 9.00061 10.125C10.307 10.125 11.5066 10.4773 12.3906 11.0667C13.272 11.6543 13.8756 12.5072 13.8756 13.5H13.1256C13.1256 12.836 12.7219 12.1889 11.9746 11.6907C11.2299 11.1942 10.1795 10.875 9.00061 10.875C7.82168 10.875 6.77132 11.1942 6.02664 11.6907Z" fill="#FCFCFC"/>
</svg>
