<svg width="14" height="14" viewBox="0 0 14 14" fill="none" xmlns="http://www.w3.org/2000/svg">
<g clip-path="url(#clip0)">
<path fill-rule="evenodd" clip-rule="evenodd" d="M1.83447 3.6506C1.83447 3.35223 2.07635 3.11035 2.37473 3.11035H12.0993C12.3976 3.11035 12.6395 3.35223 12.6395 3.6506C12.6395 3.94898 12.3976 4.19086 12.0993 4.19086H2.37473C2.07635 4.19086 1.83447 3.94898 1.83447 3.6506Z" fill="black" fill-opacity="0.7"/>
<path fill-rule="evenodd" clip-rule="evenodd" d="M6.15656 2.02972C6.01327 2.02972 5.87586 2.08664 5.77454 2.18796C5.67322 2.28928 5.6163 2.42669 5.6163 2.56998V3.11023H8.85782V2.56998C8.85782 2.42669 8.8009 2.28928 8.69958 2.18796C8.59827 2.08664 8.46085 2.02972 8.31757 2.02972H6.15656ZM9.93833 3.11023V2.56998C9.93833 2.14012 9.76757 1.72788 9.46362 1.42393C9.15967 1.11998 8.74742 0.949219 8.31757 0.949219H6.15656C5.7267 0.949219 5.31446 1.11998 5.01051 1.42393C4.70656 1.72788 4.5358 2.14012 4.5358 2.56998V3.11023H3.45529C3.15692 3.11023 2.91504 3.35211 2.91504 3.65048V11.214C2.91504 11.6439 3.0858 12.0561 3.38975 12.3601C3.6937 12.664 4.10595 12.8348 4.5358 12.8348H9.93833C10.3682 12.8348 10.7804 12.664 11.0844 12.3601C11.3883 12.0561 11.5591 11.6439 11.5591 11.214V3.65048C11.5591 3.35211 11.3172 3.11023 11.0188 3.11023H9.93833ZM3.99554 4.19073V11.214C3.99554 11.3573 4.05246 11.4947 4.15378 11.596C4.2551 11.6974 4.39251 11.7543 4.5358 11.7543H9.93833C10.0816 11.7543 10.219 11.6974 10.3203 11.596C10.4217 11.4947 10.4786 11.3573 10.4786 11.214V4.19073H3.99554Z" fill="black" fill-opacity="0.7"/>
</g>
<defs>
<clipPath id="clip0">
<rect width="12.9661" height="12.9661" fill="white" transform="translate(0.753906 0.40918)"/>
</clipPath>
</defs>
</svg>
