<svg width="11" height="8" viewBox="0 0 11 8" fill="none" xmlns="http://www.w3.org/2000/svg">
<path d="M0.0239258 7.94385H1.22005L2.13415 6.16426C2.3092 5.79472 2.49396 5.43492 2.68845 4.99731H2.72735C2.95102 5.43492 3.13578 5.79472 3.32055 6.16426L4.26383 7.94385H5.5183L3.45669 4.30687L5.38215 0.776855H4.19576L3.34972 2.4592C3.18441 2.78984 3.04826 3.11075 2.8635 3.53863H2.81487C2.60093 3.11075 2.44534 2.78984 2.2703 2.4592L1.40481 0.776855H0.150345L2.07581 4.24852L0.0239258 7.94385Z" fill="black" fill-opacity="0.7"/>
<path d="M6.08916 7.94385H10.7083V6.99084H8.88983C8.53975 6.99084 8.08269 7.02002 7.72288 7.05892C9.21074 5.50299 10.368 4.21935 10.368 2.94543C10.368 1.68124 9.52192 0.844928 8.20911 0.844928C7.27555 0.844928 6.64346 1.25336 6.03081 1.91463L6.66291 2.537C7.04216 2.09939 7.50894 1.73959 8.07297 1.73959C8.88011 1.73959 9.28854 2.24526 9.28854 3.00378C9.28854 4.09293 8.08269 5.33767 6.08916 7.29231V7.94385Z" fill="black" fill-opacity="0.7"/>
</svg>
