<svg width="76" height="76" viewBox="0 0 76 76" fill="none" xmlns="http://www.w3.org/2000/svg">
<rect width="76" height="76" rx="38" fill="url(#paint0_linear)"/>
<circle cx="38" cy="38" r="34.5" stroke="white" stroke-width="7" stroke-miterlimit="0" stroke-dasharray="16 11"/>
<circle cx="37.5" cy="37.5" r="25.5" fill="black" fill-opacity="0.4"/>
<path d="M32.3965 35.791C33.6387 35.791 34.626 36.1396 35.3584 36.8369C36.0967 37.5342 36.4658 38.4893 36.4658 39.7021C36.4658 41.1377 36.0234 42.2422 35.1387 43.0156C34.2539 43.7891 32.9883 44.1758 31.3418 44.1758C29.9121 44.1758 28.7578 43.9443 27.8789 43.4814V41.1348C28.3418 41.3809 28.8809 41.583 29.4961 41.7412C30.1113 41.8936 30.6943 41.9697 31.2451 41.9697C32.9033 41.9697 33.7324 41.29 33.7324 39.9307C33.7324 38.6357 32.874 37.9883 31.1572 37.9883C30.8467 37.9883 30.5039 38.0205 30.1289 38.085C29.7539 38.1436 29.4492 38.208 29.2148 38.2783L28.1338 37.6982L28.6172 31.1504H35.5869V33.4531H30.999L30.7617 35.9756L31.0693 35.9141C31.4268 35.832 31.8691 35.791 32.3965 35.791ZM46.916 37.5752C46.916 39.8193 46.5469 41.4805 45.8086 42.5586C45.0762 43.6367 43.9453 44.1758 42.416 44.1758C40.9336 44.1758 39.8145 43.6191 39.0586 42.5059C38.3086 41.3926 37.9336 39.749 37.9336 37.5752C37.9336 35.3076 38.2998 33.6377 39.0322 32.5654C39.7646 31.4873 40.8926 30.9482 42.416 30.9482C43.8984 30.9482 45.0176 31.5107 45.7734 32.6357C46.5352 33.7607 46.916 35.4072 46.916 37.5752ZM40.6318 37.5752C40.6318 39.1514 40.7666 40.2822 41.0361 40.9678C41.3115 41.6475 41.7715 41.9873 42.416 41.9873C43.0488 41.9873 43.5059 41.6416 43.7871 40.9502C44.0684 40.2588 44.209 39.1338 44.209 37.5752C44.209 35.999 44.0654 34.8682 43.7783 34.1826C43.4971 33.4912 43.043 33.1455 42.416 33.1455C41.7773 33.1455 41.3203 33.4912 41.0449 34.1826C40.7695 34.8682 40.6318 35.999 40.6318 37.5752Z" fill="white"/>
<circle cx="37.5" cy="37.5" r="20" stroke="white"/>
<defs>
<linearGradient id="paint0_linear" x1="38" y1="0" x2="38" y2="76" gradientUnits="userSpaceOnUse">
<stop offset="0.324689" stop-color="#CB0000"/>
<stop offset="1" stop-color="#EC4E1D"/>
</linearGradient>
</defs>
</svg>
