<svg width="54" height="54" viewBox="0 0 54 54" fill="none" xmlns="http://www.w3.org/2000/svg">
<path d="M0 27C0 12.0883 12.0883 0 27 0V0C41.9117 0 54 12.0883 54 27V27C54 41.9117 41.9117 54 27 54V54C12.0883 54 0 41.9117 0 27V27Z" fill="url(#paint0_linear_1605_4042)"/>
<path fill-rule="evenodd" clip-rule="evenodd" d="M53.2597 33.3057L48.4225 32.1484C48.8165 30.5017 49.0263 28.7786 49.0263 27C49.0263 25.2214 48.8165 23.4983 48.4225 21.8516L53.2597 20.6942C53.7437 22.7172 54 24.8287 54 27C54 29.1713 53.7437 31.2828 53.2597 33.3057ZM50.0248 12.8909L45.7864 15.4936C43.968 12.5324 41.4676 10.032 38.5064 8.21356L41.1091 3.97523C44.7365 6.20278 47.7972 9.26349 50.0248 12.8909ZM33.3057 0.740311L32.1484 5.57748C30.5017 5.18349 28.7786 4.97368 27 4.97368C25.2214 4.97368 23.4983 5.18349 21.8516 5.57748L20.6942 0.740312C22.7172 0.256305 24.8287 0 27 0C29.1713 0 31.2828 0.256305 33.3057 0.740311ZM12.8909 3.97524L15.4936 8.21357C12.5324 10.032 10.032 12.5324 8.21356 15.4936L3.97523 12.8909C6.20278 9.26349 9.26349 6.20278 12.8909 3.97524ZM0.740311 20.6943C0.256305 22.7172 0 24.8287 0 27C0 29.1713 0.256305 31.2828 0.740312 33.3057L5.57748 32.1484C5.18349 30.5017 4.97368 28.7786 4.97368 27C4.97368 25.2214 5.18349 23.4983 5.57748 21.8516L0.740311 20.6943ZM3.97524 41.1091L8.21357 38.5064C10.032 41.4676 12.5324 43.968 15.4936 45.7864L12.8909 50.0248C9.26349 47.7972 6.20278 44.7365 3.97524 41.1091ZM20.6943 53.2597L21.8516 48.4225C23.4983 48.8165 25.2214 49.0263 27 49.0263C28.7786 49.0263 30.5017 48.8165 32.1484 48.4225L33.3057 53.2597C31.2828 53.7437 29.1713 54 27 54C24.8287 54 22.7172 53.7437 20.6943 53.2597ZM41.1091 50.0248C44.7365 47.7972 47.7972 44.7365 50.0248 41.1091L45.7864 38.5064C43.968 41.4676 41.4676 43.968 38.5064 45.7864L41.1091 50.0248Z" fill="white"/>
<path d="M44.7642 26.6448C44.7642 36.6513 36.6523 44.7632 26.6458 44.7632C16.6392 44.7632 8.52734 36.6513 8.52734 26.6448C8.52734 16.6383 16.6392 8.52637 26.6458 8.52637C36.6523 8.52637 44.7642 16.6383 44.7642 26.6448Z" fill="black" fill-opacity="0.4"/>
<path d="M29.8799 31.2631H23.4976V29.9204L25.7895 27.6036C26.2516 27.129 26.6221 26.7335 26.9011 26.4171C27.1842 26.0965 27.3882 25.8051 27.5131 25.5428C27.6421 25.2805 27.7067 24.9995 27.7067 24.6997C27.7067 24.3375 27.6047 24.0669 27.4007 23.8879C27.2008 23.7047 26.9323 23.6131 26.5951 23.6131C26.2412 23.6131 25.8977 23.6943 25.5647 23.8567C25.2316 24.019 24.884 24.2501 24.5218 24.5499L23.4727 23.3071C23.7349 23.0823 24.0118 22.87 24.3032 22.6702C24.5988 22.4703 24.9402 22.31 25.3274 22.1893C25.7187 22.0644 26.1871 22.002 26.7325 22.002C27.332 22.002 27.8461 22.1102 28.275 22.3267C28.7079 22.5432 29.041 22.8388 29.2741 23.2135C29.5073 23.584 29.6238 24.0045 29.6238 24.4749C29.6238 24.9787 29.5239 25.4387 29.3241 25.855C29.1243 26.2714 28.8328 26.6835 28.4498 27.0915C28.071 27.4995 27.613 27.9512 27.0759 28.4466L25.9019 29.552V29.6394H29.8799V31.2631Z" fill="white"/>
<path fill-rule="evenodd" clip-rule="evenodd" d="M26.6439 40.5002C34.296 40.5002 40.4992 34.2969 40.4992 26.6449C40.4992 18.9928 34.296 12.7896 26.6439 12.7896C18.9919 12.7896 12.7887 18.9928 12.7887 26.6449C12.7887 34.2969 18.9919 40.5002 26.6439 40.5002ZM26.6439 41.2107C34.6884 41.2107 41.2097 34.6894 41.2097 26.6449C41.2097 18.6004 34.6884 12.0791 26.6439 12.0791C18.5995 12.0791 12.0781 18.6004 12.0781 26.6449C12.0781 34.6894 18.5995 41.2107 26.6439 41.2107Z" fill="white"/>
<defs>
<linearGradient id="paint0_linear_1605_4042" x1="27" y1="0" x2="27" y2="54" gradientUnits="userSpaceOnUse">
<stop offset="0.324689" stop-color="#CB0000"/>
<stop offset="1" stop-color="#EC4E1D"/>
</linearGradient>
</defs>
</svg>
