<svg width="54" height="54" viewBox="0 0 54 54" fill="none" xmlns="http://www.w3.org/2000/svg">
<path d="M0 27C0 12.0883 12.0883 0 27 0C41.9117 0 54 12.0883 54 27C54 41.9117 41.9117 54 27 54C12.0883 54 0 41.9117 0 27Z" fill="url(#paint0_linear_1605_4054)"/>
<path fill-rule="evenodd" clip-rule="evenodd" d="M53.2597 33.3057L48.4225 32.1484C48.8165 30.5017 49.0263 28.7786 49.0263 27C49.0263 25.2214 48.8165 23.4983 48.4225 21.8516L53.2597 20.6942C53.7437 22.7172 54 24.8287 54 27C54 29.1713 53.7437 31.2828 53.2597 33.3057ZM50.0248 12.8909L45.7864 15.4936C43.968 12.5324 41.4676 10.032 38.5064 8.21356L41.1091 3.97523C44.7365 6.20278 47.7972 9.26349 50.0248 12.8909ZM33.3057 0.740311L32.1484 5.57748C30.5017 5.18349 28.7786 4.97368 27 4.97368C25.2214 4.97368 23.4983 5.18349 21.8516 5.57748L20.6942 0.740312C22.7172 0.256305 24.8287 0 27 0C29.1713 0 31.2828 0.256305 33.3057 0.740311ZM12.8909 3.97524L15.4936 8.21357C12.5324 10.032 10.032 12.5324 8.21356 15.4936L3.97523 12.8909C6.20278 9.26349 9.26349 6.20278 12.8909 3.97524ZM0.740311 20.6943C0.256305 22.7172 0 24.8287 0 27C0 29.1713 0.256305 31.2828 0.740312 33.3057L5.57748 32.1484C5.18349 30.5017 4.97368 28.7786 4.97368 27C4.97368 25.2214 5.18349 23.4983 5.57748 21.8516L0.740311 20.6943ZM3.97524 41.1091L8.21357 38.5064C10.032 41.4676 12.5324 43.968 15.4936 45.7864L12.8909 50.0248C9.26349 47.7972 6.20278 44.7365 3.97524 41.1091ZM20.6943 53.2597L21.8516 48.4225C23.4983 48.8165 25.2214 49.0263 27 49.0263C28.7786 49.0263 30.5017 48.8165 32.1484 48.4225L33.3057 53.2597C31.2828 53.7437 29.1713 54 27 54C24.8287 54 22.7172 53.7437 20.6943 53.2597ZM41.1091 50.0248C44.7365 47.7972 47.7972 44.7365 50.0248 41.1091L45.7864 38.5064C43.968 41.4676 41.4676 43.968 38.5064 45.7864L41.1091 50.0248Z" fill="white"/>
<path d="M44.7642 26.6448C44.7642 36.6513 36.6523 44.7632 26.6458 44.7632C16.6392 44.7632 8.52734 36.6513 8.52734 26.6448C8.52734 16.6383 16.6392 8.52637 26.6458 8.52637C36.6523 8.52637 44.7642 16.6383 44.7642 26.6448Z" fill="black" fill-opacity="0.4"/>
<path d="M24.6096 31.2629H22.6799V25.9797C22.6799 25.834 22.682 25.655 22.6861 25.4427C22.6903 25.2262 22.6965 25.0055 22.7049 24.7807C22.7132 24.5517 22.7215 24.3457 22.7299 24.1625C22.6841 24.2166 22.5904 24.3103 22.4488 24.4435C22.3114 24.5725 22.1824 24.6891 22.0617 24.7932L21.0125 25.6363L20.082 24.4747L23.0234 22.1329H24.6096V31.2629Z" fill="white"/>
<path d="M33.4897 26.6979C33.4897 27.4348 33.4315 28.0926 33.3149 28.6713C33.2025 29.2499 33.0193 29.7412 32.7653 30.145C32.5155 30.5489 32.1867 30.857 31.7787 31.0693C31.3707 31.2816 30.8752 31.3878 30.2924 31.3878C29.5596 31.3878 28.9581 31.2025 28.4876 30.832C28.0172 30.4573 27.6695 29.9202 27.4447 29.2208C27.2199 28.5172 27.1075 27.6762 27.1075 26.6979C27.1075 25.7112 27.2095 24.8681 27.4135 24.1687C27.6217 23.4651 27.9589 22.926 28.4252 22.5513C28.8914 22.1766 29.5139 21.9893 30.2924 21.9893C31.0209 21.9893 31.6205 22.1766 32.0909 22.5513C32.5655 22.9218 32.9173 23.4589 33.1463 24.1625C33.3753 24.8619 33.4897 25.707 33.4897 26.6979ZM29.0247 26.6979C29.0247 27.3931 29.0621 27.9739 29.1371 28.4402C29.2162 28.9023 29.3473 29.2499 29.5305 29.4831C29.7137 29.7162 29.9676 29.8328 30.2924 29.8328C30.6129 29.8328 30.8648 29.7183 31.048 29.4893C31.2354 29.2562 31.3686 28.9086 31.4477 28.4464C31.5268 27.9802 31.5663 27.3973 31.5663 26.6979C31.5663 26.0026 31.5268 25.4218 31.4477 24.9556C31.3686 24.4893 31.2354 24.1396 31.048 23.9064C30.8648 23.6691 30.6129 23.5505 30.2924 23.5505C29.9676 23.5505 29.7137 23.6691 29.5305 23.9064C29.3473 24.1396 29.2162 24.4893 29.1371 24.9556C29.0621 25.4218 29.0247 26.0026 29.0247 26.6979Z" fill="white"/>
<path fill-rule="evenodd" clip-rule="evenodd" d="M26.6439 40.5002C34.296 40.5002 40.4992 34.2969 40.4992 26.6449C40.4992 18.9928 34.296 12.7896 26.6439 12.7896C18.9919 12.7896 12.7887 18.9928 12.7887 26.6449C12.7887 34.2969 18.9919 40.5002 26.6439 40.5002ZM26.6439 41.2107C34.6884 41.2107 41.2097 34.6894 41.2097 26.6449C41.2097 18.6004 34.6884 12.0791 26.6439 12.0791C18.5995 12.0791 12.0781 18.6004 12.0781 26.6449C12.0781 34.6894 18.5995 41.2107 26.6439 41.2107Z" fill="white"/>
<defs>
<linearGradient id="paint0_linear_1605_4054" x1="27" y1="0" x2="27" y2="54" gradientUnits="userSpaceOnUse">
<stop offset="0.771913" stop-color="#FF8855"/>
<stop offset="1" stop-color="#FFAB1D"/>
</linearGradient>
</defs>
</svg>
