<svg width="16" height="16" viewBox="0 0 16 16" fill="none" xmlns="http://www.w3.org/2000/svg">
<path d="M15.1778 2.58873L15.3545 2.41195L15.1778 2.23518L13.7678 0.825176L13.591 0.6484L13.4142 0.825176L8.00098 6.2384L2.58775 0.825176L2.41098 0.6484L2.2342 0.825176L0.8242 2.23518L0.647423 2.41195L0.8242 2.58873L6.23742 8.00195L0.8242 13.4152L0.647423 13.592L0.8242 13.7687L2.2342 15.1787L2.41098 15.3555L2.58775 15.1787L8.00098 9.76551L13.4142 15.1787L13.591 15.3555L13.7678 15.1787L15.1778 13.7687L15.3545 13.592L15.1778 13.4152L9.76453 8.00195L15.1778 2.58873Z" fill="#F96D6D" stroke="#F96D6D" stroke-width="0.5"/>
</svg>
